<svg width="300" height="80" viewBox="0 0 300 80" fill="none" xmlns="http://www.w3.org/2000/svg">
  <rect width="300" height="80" rx="14" fill="none"/>
  <path d="M28 55V24H64V34H40V38H60V47H40V55H28Z" fill="#F6F7FB"/>
  <path d="M70 55V24H82V45H105V55H70Z" fill="#F6F7FB"/>
  <path d="M108 55L121 39L109 24H123L129 31L135 24H149L137 39L150 55H136L129 47L122 55H108Z" fill="#FF8A3D"/>
  <path d="M154 55V24H189V34H166V36H187V44H166V45H189V55H154Z" fill="#F6F7FB"/>
  <path d="M194 55V24H214C223 24 229 29 229 36C229 43 223 48 214 48H206V55H194ZM206 39H212C215 39 217 38 217 36C217 34 215 33 212 33H206V39Z" fill="#F6F7FB"/>
  <path d="M232 55V24H244L262 45V24H274V55H262L244 34V55H232Z" fill="#F6F7FB"/>
</svg>
