<svg width="300" height="80" viewBox="0 0 300 80" fill="none" xmlns="http://www.w3.org/2000/svg">
  <rect width="300" height="80" rx="14" fill="none"/>
  <path d="M26 55V46L49 33H27V24H66V33L43 46H66V55H26Z" fill="#F6F7FB"/>
  <path d="M73 55V24H85L103 45V24H115V55H103L85 34V55H73Z" fill="#F6F7FB"/>
  <path d="M122 55V24H156V34H134V37H153V45H134V55H122Z" fill="#F6F7FB"/>
  <path d="M160 55V24H172V36H184C192 36 198 40 198 46C198 52 192 55 184 55H160ZM172 47H182C184 47 186 47 186 46C186 45 184 44 182 44H172V47Z" fill="#8BE8FF"/>
  <path d="M202 55V24H214V55H202Z" fill="#F6F7FB"/>
  <path d="M220 55V34H209V24H243V34H232V55H220Z" fill="#F6F7FB"/>
  <path d="M247 55V24H282V34H259V36H280V44H259V45H282V55H247Z" fill="#F6F7FB"/>
</svg>
