<svg width="300" height="80" viewBox="0 0 300 80" fill="none" xmlns="http://www.w3.org/2000/svg">
  <rect width="300" height="80" rx="14" fill="none"/>
  <path d="M26 55V24H38L55 45V24H67V55H55L38 34V55H26Z" fill="#10D7A2"/>
  <path d="M76 55V24H118V34H88V36H116V44H88V45H118V55H76Z" fill="#F6F7FB"/>
  <path d="M126 55L141 39L127 24H142L149 31L156 24H171L157 39L172 55H157L149 47L141 55H126Z" fill="#F6F7FB"/>
  <path d="M176 55V24H205C214 24 220 29 220 37C220 46 214 51 205 51H188V55H176ZM188 41H202C205 41 208 40 208 37C208 34 205 33 202 33H188V41Z" fill="#F6F7FB"/>
  <path d="M226 55V24H238V45H266V55H226Z" fill="#10D7A2"/>
  <path d="M271 55V24H283V55H271Z" fill="#F6F7FB"/>
</svg>
