<svg width="65" height="18" viewBox="0 0 65 18" fill="none" xmlns="http://www.w3.org/2000/svg">
<path d="M20.4129 0.382812H17.5078V17.9937H20.4129V0.382812Z" fill="white"/>
<path d="M30.5909 12.3963C30.5909 15.0436 28.2537 15.2903 27.622 15.2903C25.9164 15.2903 25.5379 13.6899 25.5379 12.7031V6.05469H22.6328V12.7653C22.6328 14.4279 23.2006 15.7816 24.0853 16.7684C24.9062 17.5686 26.1695 17.9998 27.5604 17.9998C28.5705 17.9998 29.8976 17.7531 30.5292 17.0151V17.9998H33.4343V6.05469H30.5292V12.3963H30.5909Z" fill="white"/>
<path d="M39.178 1.80469H36.273V6.05449H34.125V8.88639H36.273V17.9997H39.178V8.88639H41.326V6.05449H39.178V1.80469Z" fill="white"/>
<path d="M50.4357 14.4257C49.8041 14.9792 48.9831 15.2881 48.0984 15.2881C46.078 15.2881 44.6234 13.8722 44.6234 11.8406C44.6234 9.80891 46.0759 8.45311 48.0984 8.45311C48.9831 8.45311 49.8041 8.69981 50.4357 9.31551L50.878 9.68461L52.7729 7.83741L52.3306 7.40621C51.1311 6.42151 49.6764 5.80581 48.0984 5.80581C44.4979 5.74361 41.8438 8.26861 41.8438 11.8406C41.8438 15.2881 44.5595 17.9375 48.0984 17.9375C49.7402 17.9375 51.2566 17.384 52.4582 16.3371L52.9005 15.9059L50.8801 13.9365L50.4357 14.4257Z" fill="white"/>
<path d="M63.1879 7.09551C62.367 6.29531 61.3568 5.86411 60.0297 5.86411C59.0195 5.86411 57.9455 6.11081 57.1863 6.84881V0.382812H54.2812V17.9937H57.1863V11.3432C57.1863 8.69591 59.2068 8.44921 59.8405 8.44921C61.5461 8.44921 61.5461 10.0496 61.5461 11.0364V17.9937H64.4511V10.9742C64.5149 9.43391 64.1364 8.01801 63.1879 7.09551Z" fill="white"/>
<path d="M47.9592 13.9304C49.1102 13.9304 50.0433 13.0208 50.0433 11.8988C50.0433 10.7768 49.1102 9.86719 47.9592 9.86719C46.8081 9.86719 45.875 10.7768 45.875 11.8988C45.875 13.0208 46.8081 13.9304 47.9592 13.9304Z" fill="#FF3D2E"/>
<path d="M13.5318 13.5582C12.4578 14.6051 10.8777 15.2208 9.36354 15.2208C6.07784 15.2208 3.74054 12.758 3.74054 9.3705C3.74054 5.9831 6.07784 3.5203 9.29974 3.5203C10.816 3.5203 12.2686 4.136 13.468 5.1829L13.9104 5.6141L15.8053 3.767L15.3629 3.3357C13.7211 1.7353 11.5731 0.875 9.29974 0.875C4.49764 0.9351 0.960938 4.5692 0.960938 9.4327C0.960938 14.2983 4.49764 17.9303 9.29974 17.9303C11.6369 17.9303 13.8487 17.0679 15.3629 15.4675L15.8053 15.0363L13.9104 13.0669L13.5318 13.5582Z" fill="white"/>
</svg>
