<svg width="21" height="20" viewBox="0 0 21 20" fill="none" xmlns="http://www.w3.org/2000/svg">
<path d="M4.71252 19.9663C4.49133 19.9663 4.23853 19.9031 4.04894 19.7449C3.66975 19.4601 3.51177 19.017 3.60657 18.5739L4.83892 13.0043C4.87052 12.8145 4.80732 12.6563 4.68092 12.5297L0.383242 8.73232C0.0356536 8.41588 -0.0907422 7.94098 0.0672527 7.52974C0.225248 7.08668 0.572838 6.77023 1.04682 6.73863L6.70349 6.20054C6.89308 6.16894 7.05108 6.07392 7.11428 5.91569L9.38941 0.694359C9.579 0.28289 9.98977 -0.00195312 10.4322 -0.00195312C10.9061 -0.00195312 11.3169 0.251292 11.4749 0.694359L13.7503 5.91569C13.8135 6.07392 13.9715 6.20054 14.1611 6.20054L19.8166 6.73863C20.2917 6.77023 20.6714 7.08668 20.7964 7.52974C20.9555 7.97281 20.8282 8.44748 20.4804 8.76392L16.2157 12.5613C16.0884 12.6879 16.0247 12.8777 16.0566 13.0359L17.2887 18.6055C17.3842 19.0486 17.2273 19.5233 16.8477 19.7765C16.468 20.0613 15.9938 20.0613 15.583 19.8397L10.685 16.9601C10.527 16.8651 10.3374 16.8651 10.1794 16.9601L5.28132 19.8081C5.09172 19.9031 4.90211 19.9663 4.71252 19.9663Z" fill="#D0F601"/>
</svg>
