<svg width="25" height="24" viewBox="0 0 25 24" fill="none" xmlns="http://www.w3.org/2000/svg">
<path d="M24.4996 20.4995C24.5019 23.208 21.7582 24.8314 19.5232 23.5275C17.7986 22.5214 15.9553 21.8837 13.9829 21.6766C10.9646 21.3595 8.12992 21.9757 5.48623 23.5059C4.34088 24.1686 3.18132 24.1745 2.06723 23.464C0.934381 22.742 0.401778 21.6557 0.514892 20.2924C0.550702 19.8607 0.6911 19.4132 0.88095 19.0228C3.43483 13.7612 5.9961 8.50369 8.57783 3.25605C9.37929 1.62631 10.7168 0.758201 12.5004 0.750056C14.2818 0.74191 15.6114 1.62747 16.4054 3.23627C19.0076 8.50718 21.574 13.7961 24.1523 19.0793C24.3843 19.554 24.5076 20.0579 24.4996 20.4995Z" fill="white"/>
</svg>
