<svg width="119" height="28" viewBox="0 0 119 28" fill="none" xmlns="http://www.w3.org/2000/svg">
<g clip-path="url(#clip0_3722_12992)">
<path fill-rule="evenodd" clip-rule="evenodd" d="M94.9232 1.6303V10.8232C93.107 8.94027 90.4597 8.06517 87.8556 8.48691C86.9671 8.61786 86.1105 8.9074 85.328 9.34126C82.674 10.787 81.0328 13.5407 81.047 16.5241C81.047 17.2134 81.1341 17.9001 81.306 18.5683C81.5155 19.4065 81.8612 20.2058 82.3297 20.9357C82.8058 21.6785 83.4011 22.3406 84.0927 22.896C84.8475 23.5159 85.7178 23.9855 86.655 24.2785L86.8319 24.3345L86.8856 24.35C87.6174 24.5595 88.3761 24.6641 89.1383 24.6607H89.3974H89.5553C90.7977 24.6386 92.0115 24.2912 93.0718 23.6541C93.7711 23.261 94.4095 22.7714 94.9675 22.2001V24.2319H98.3891V0.337891L94.9232 1.6303ZM94.7989 16.5637C94.7299 19.2903 92.4623 21.4654 89.6885 21.4654C86.9148 21.4654 84.6471 19.2903 84.5781 16.5637C84.5781 13.7427 86.7234 11.6332 89.6332 11.6115C92.5431 11.5897 94.821 13.7148 94.7957 16.5668L94.7989 16.5637ZM13.7475 10.8193V8.81857H17.1976V24.2156H13.7727V22.1838C13.2148 22.7551 12.5764 23.2448 11.8771 23.6378C10.8301 24.2724 9.63119 24.6239 8.4017 24.6568H8.22793H7.96885C7.20667 24.6603 6.44797 24.5556 5.71617 24.3461L5.66246 24.3306L5.48553 24.2747C4.54834 23.9816 3.67807 23.512 2.92322 22.8922C2.23282 22.3364 1.63852 21.6744 1.16341 20.9318C0.691891 20.2035 0.343024 19.4052 0.130275 18.5676C-0.0417127 17.8993 -0.128735 17.2127 -0.1288 16.5233C-0.144147 13.5388 1.49723 10.7837 4.15225 9.3374C4.93478 8.90354 5.79138 8.614 6.6798 8.48305C9.2839 8.06131 11.9312 8.93641 13.7475 10.8193ZM12.127 20.092C13.0919 19.1625 13.6317 17.8876 13.6226 16.5593H13.6195C13.6447 13.6949 11.3636 11.5761 8.45378 11.5978C5.54394 11.6196 3.39868 13.7291 3.39868 16.55C3.38536 17.8782 3.92171 19.1546 4.88456 20.0862C5.84741 21.0177 7.15403 21.5244 8.50434 21.4897C9.85464 21.526 11.162 21.0215 12.127 20.092ZM29.3359 16.525C29.3359 12.0347 33.0378 8.39464 37.6042 8.39464C39.7956 8.38366 41.8997 9.23844 43.4441 10.7671C44.9886 12.2958 45.8442 14.3703 45.8188 16.525C45.8512 18.6818 44.9978 20.7602 43.4518 22.2904C41.9058 23.8206 39.7977 24.6732 37.6042 24.6554C33.0378 24.6554 29.3359 21.0153 29.3359 16.525ZM37.4268 21.2511C40.2102 21.3163 42.3681 19.4771 42.4534 16.7649V16.7618C42.5261 13.9502 40.5262 11.5922 37.7869 11.5239C36.4604 11.4471 35.1601 11.9097 34.1905 12.8032C33.2209 13.6966 32.6673 14.9426 32.6592 16.2492C32.5894 17.5413 33.0586 18.8055 33.9585 19.7496C34.8584 20.6937 36.111 21.236 37.4268 21.2511ZM113.673 8.82443V10.8252C111.857 8.94227 109.21 8.06717 106.606 8.4889C105.717 8.61985 104.861 8.9094 104.078 9.34326C101.424 10.789 99.7828 13.5427 99.797 16.5261C99.797 17.2154 99.8841 17.9021 100.056 18.5703C100.269 19.4079 100.618 20.2063 101.089 20.9346C101.565 21.6774 102.161 22.3394 102.852 22.8949C103.607 23.5148 104.477 23.9843 105.414 24.2774L105.591 24.3333L105.645 24.3489C106.377 24.5584 107.136 24.663 107.898 24.6596H108.157H108.315C109.55 24.6352 110.757 24.2889 111.812 23.6561C112.512 23.263 113.15 22.7734 113.708 22.2021V24.2339H117.13V8.82443H113.673ZM113.545 16.5656C113.476 19.2923 111.208 21.4674 108.435 21.4674C105.661 21.4674 103.393 19.2923 103.324 16.5656C103.324 13.7447 105.469 11.6352 108.379 11.6134C111.289 11.5917 113.567 13.7136 113.545 16.5656ZM58.5842 9.88788C58.5842 10.4291 58.585 10.9704 58.5859 11.5116C58.5891 13.4961 58.5923 15.4801 58.5526 17.4621C58.521 18.9223 58.0565 20.2427 56.5937 20.9976C53.7502 22.4702 50.9067 20.9697 50.8151 17.9282C50.7424 15.2191 50.7898 8.82227 50.7898 8.82227H47.2418V17.5554C47.2109 18.2855 47.2768 19.0166 47.4377 19.7301C47.9861 22.6346 50.5984 24.7175 53.6017 24.645C55.4574 24.6487 57.2494 23.9795 58.6347 22.7654V24.2349H62.0248V8.82537H58.5842V9.88788ZM68.3647 23.3852C68.3647 22.8438 68.3639 22.3025 68.363 21.7613C68.3598 19.7769 68.3566 17.7929 68.3963 15.8109C68.4279 14.3507 68.8924 13.0303 70.3552 12.2754C73.1987 10.8028 76.0422 12.3034 76.1338 15.3449C76.1844 17.2317 76.1753 19.1184 76.1661 21.0042V21.0044V21.0049C76.1621 21.8265 76.1581 22.6479 76.1591 23.469V24.4508H79.7135V15.7146C79.7443 14.9844 79.6785 14.2533 79.5176 13.5398C78.969 10.6342 76.3549 8.55088 73.3503 8.62496C71.4941 8.62545 69.7032 9.2991 68.3205 10.517V9.04748H64.9336V24.457H68.3711L68.3647 23.3852ZM23.694 8.82105V10.4583C24.8915 9.34609 26.964 8.62843 28.5785 8.41406V11.7414C27.8961 11.7507 26.4617 11.934 25.735 12.3099C24.2722 13.068 23.8046 14.3852 23.7762 15.8454V24.2336H20.3008V8.82105H23.694Z" fill="#F5F7FF"/>
</g>
<defs>
<clipPath id="clip0_3722_12992">
<rect width="119" height="28" fill="white"/>
</clipPath>
</defs>
</svg>
