<svg width="80" height="64" viewBox="0 0 80 64" fill="none" xmlns="http://www.w3.org/2000/svg">
<g clip-path="url(#clip0_3863_213)">
<path d="M9.69228 18.0784C10.4484 16.8986 10.7752 15.7998 10.7752 15.7998C10.7752 15.7998 9.78401 16.1288 8.56641 17.0855C7.45293 18.0813 6.16375 19.8154 6.25454 22.0843C7.91942 20.7652 9.01821 19.3527 9.69228 18.0784Z" fill="white"/>
<path d="M9.69228 18.0784C10.4484 16.8986 10.7752 15.7998 10.7752 15.7998C10.7752 15.7998 9.78401 16.1288 8.56641 17.0855C7.45293 18.0813 6.16375 19.8154 6.25454 22.0843C7.91942 20.7652 9.01821 19.3527 9.69228 18.0784Z" fill="white"/>
<path d="M3.33386 31.1845L3.26926 32.1113C3.25771 32.3087 3.39426 32.4837 3.59362 32.4886C3.78535 32.5043 3.95853 32.3442 3.96915 32.1534L4.03438 31.2293C5.40193 30.4144 6.33991 29.2517 6.93038 28.215C7.22796 27.6404 7.49501 27.1229 7.68682 26.7514C7.84205 26.3571 7.94314 26.1183 7.94314 26.1183C7.94314 26.1183 7.05386 26.2033 5.96014 26.9077C5.18629 27.4904 4.14599 28.5536 3.76074 30.2474C3.75824 30.247 3.75596 30.2451 3.75297 30.2446C3.7655 28.4978 3.55196 27.1085 3.10991 26.0037C2.70636 24.6987 2.12462 23.8926 2.12462 23.8926C2.12462 23.8926 2.03052 24.212 1.88054 24.7208C1.75165 25.2393 1.58441 25.9498 1.6339 26.7808C1.64482 28.2857 2.02773 30.051 3.33386 31.1845Z" fill="white"/>
<path d="M3.33386 31.1845L3.26926 32.1113C3.25771 32.3087 3.39426 32.4837 3.59362 32.4886C3.78535 32.5043 3.95853 32.3442 3.96915 32.1534L4.03438 31.2293C5.40193 30.4144 6.33991 29.2517 6.93038 28.215C7.22796 27.6404 7.49501 27.1229 7.68682 26.7514C7.84205 26.3571 7.94314 26.1183 7.94314 26.1183C7.94314 26.1183 7.05386 26.2033 5.96014 26.9077C5.18629 27.4904 4.14599 28.5536 3.76074 30.2474C3.75824 30.247 3.75596 30.2451 3.75297 30.2446C3.7655 28.4978 3.55196 27.1085 3.10991 26.0037C2.70636 24.6987 2.12462 23.8926 2.12462 23.8926C2.12462 23.8926 2.03052 24.212 1.88054 24.7208C1.75165 25.2393 1.58441 25.9498 1.6339 26.7808C1.64482 28.2857 2.02773 30.051 3.33386 31.1845Z" fill="white"/>
<path d="M4.18925 26.387C4.11863 26.5798 4.2287 26.7796 4.42022 26.8401C4.60091 26.8978 4.78977 26.782 4.85881 26.6004L5.15337 25.7472C6.64371 25.306 7.6152 24.3324 8.45868 23.535C8.89558 23.0795 9.20914 22.6265 9.41823 22.2918C9.64697 21.9662 9.79695 21.7751 9.79695 21.7751C9.79695 21.7751 8.87542 21.6111 7.8158 22.1104C6.9338 22.4904 5.82399 23.262 5.09957 24.7085C5.09223 24.7062 5.08597 24.7036 5.07905 24.7019C5.44471 23.1035 5.45669 21.7762 5.3077 20.6778C5.07715 19.3222 4.76204 18.4857 4.76204 18.4857C4.64044 18.3675 2.41282 22.7485 4.46967 25.5618L4.18925 26.387Z" fill="white"/>
<path d="M4.18925 26.387C4.11863 26.5798 4.2287 26.7796 4.42022 26.8401C4.60091 26.8978 4.78977 26.782 4.85881 26.6004L5.15337 25.7472C6.64371 25.306 7.6152 24.3324 8.45868 23.535C8.89558 23.0795 9.20914 22.6265 9.41823 22.2918C9.64697 21.9662 9.79695 21.7751 9.79695 21.7751C9.79695 21.7751 8.87542 21.6111 7.8158 22.1104C6.9338 22.4904 5.82399 23.262 5.09957 24.7085C5.09223 24.7062 5.08597 24.7036 5.07905 24.7019C5.44471 23.1035 5.45669 21.7762 5.3077 20.6778C5.07715 19.3222 4.76204 18.4857 4.76204 18.4857C4.64044 18.3675 2.41282 22.7485 4.46967 25.5618L4.18925 26.387Z" fill="white"/>
<path d="M6.23358 42.6539C6.49246 43.0251 6.97285 43.6996 7.01 43.664C7.15594 43.8124 7.38634 43.8288 7.52285 43.6933C7.65857 43.5567 7.66851 43.3309 7.53207 43.195C7.49456 43.2217 7.0128 42.5501 6.7698 42.2072C8.02621 38.3317 7.24853 35.2351 7.38613 35.0273C7.38613 35.0273 6.38673 35.5663 5.84083 36.8039C5.2584 37.8848 4.94073 39.8913 6.16345 41.9041C6.15546 41.91 6.1469 41.9128 6.13941 41.9189C6.12643 41.9277 6.11978 41.9422 6.10915 41.9524C4.68456 40.0825 3.46926 38.7289 2.33532 37.6699C0.994181 36.5098 0.0888378 35.9171 0.0896306 35.9115C0.015639 35.8825 0.28247 37.6532 1.35981 39.5354C2.35181 41.2558 4.21443 42.731 6.23358 42.6539Z" fill="white"/>
<path d="M6.23358 42.6539C6.49246 43.0251 6.97285 43.6996 7.01 43.664C7.15594 43.8124 7.38634 43.8288 7.52285 43.6933C7.65857 43.5567 7.66851 43.3309 7.53207 43.195C7.49456 43.2217 7.0128 42.5501 6.7698 42.2072C8.02621 38.3317 7.24853 35.2351 7.38613 35.0273C7.38613 35.0273 6.38673 35.5663 5.84083 36.8039C5.2584 37.8848 4.94073 39.8913 6.16345 41.9041C6.15546 41.91 6.1469 41.9128 6.13941 41.9189C6.12643 41.9277 6.11978 41.9422 6.10915 41.9524C4.68456 40.0825 3.46926 38.7289 2.33532 37.6699C0.994181 36.5098 0.0888378 35.9171 0.0896306 35.9115C0.015639 35.8825 0.28247 37.6532 1.35981 39.5354C2.35181 41.2558 4.21443 42.731 6.23358 42.6539Z" fill="white"/>
<path d="M10.6208 46.7454L12.891 48.149C13.0632 48.2627 13.2864 48.175 13.366 48.0056C13.4489 47.8159 13.3648 47.6198 13.2028 47.5131L10.9634 46.1225C10.8653 43.9807 10.2806 42.2392 9.78311 41.0136C9.32058 39.6528 8.7669 38.7779 8.80521 38.7383C8.80521 38.7383 8.03848 39.6101 7.93732 41.11C7.7175 42.5212 8.33771 44.5723 10.3958 46.1154C10.382 46.1303 10.3654 46.1427 10.3532 46.1611C8.20969 44.8098 6.30582 44.053 4.82063 43.3922C3.10495 42.7663 1.92969 42.5091 1.92969 42.5091C1.92969 42.5091 2.08892 42.9498 2.5598 43.5507C3.03942 44.1296 3.68369 44.9518 4.57136 45.6334C6.28127 46.9251 8.66164 47.6943 10.6208 46.7454Z" fill="white"/>
<path d="M10.6208 46.7454L12.891 48.149C13.0632 48.2627 13.2864 48.175 13.366 48.0056C13.4489 47.8159 13.3648 47.6198 13.2028 47.5131L10.9634 46.1225C10.8653 43.9807 10.2806 42.2392 9.78311 41.0136C9.32058 39.6528 8.7669 38.7779 8.80521 38.7383C8.80521 38.7383 8.03848 39.6101 7.93732 41.11C7.7175 42.5212 8.33771 44.5723 10.3958 46.1154C10.382 46.1303 10.3654 46.1427 10.3532 46.1611C8.20969 44.8098 6.30582 44.053 4.82063 43.3922C3.10495 42.7663 1.92969 42.5091 1.92969 42.5091C1.92969 42.5091 2.08892 42.9498 2.5598 43.5507C3.03942 44.1296 3.68369 44.9518 4.57136 45.6334C6.28127 46.9251 8.66164 47.6943 10.6208 46.7454Z" fill="white"/>
<path d="M3.7287 37.2502L4.07306 38.4974C4.12891 38.6945 4.31756 38.8114 4.49973 38.7393C4.68239 38.6674 4.7851 38.457 4.7343 38.2675L4.40412 37.0681C5.66386 35.6327 6.46718 34.0794 6.83805 32.8126C7.39944 31.4293 7.40779 30.3116 7.47093 30.2945C7.47093 30.2945 6.45601 30.5569 5.46897 31.6082C4.55218 32.5162 3.61139 34.2298 3.9738 36.5521C3.94851 36.5505 3.92372 36.5454 3.89862 36.5496C3.29827 34.2858 2.58318 32.5598 1.8571 31.2654C1.00491 29.8233 0.19326 29.001 0.19326 29.001C0.19326 29.001 0.0939104 29.3935 0.111452 30.0496C0.107695 30.7011 0.152501 31.6122 0.310383 32.5753C0.761289 34.4267 1.74709 36.5305 3.7287 37.2502Z" fill="white"/>
<path d="M3.7287 37.2502L4.07306 38.4974C4.12891 38.6945 4.31756 38.8114 4.49973 38.7393C4.68239 38.6674 4.7851 38.457 4.7343 38.2675L4.40412 37.0681C5.66386 35.6327 6.46718 34.0794 6.83805 32.8126C7.39944 31.4293 7.40779 30.3116 7.47093 30.2945C7.47093 30.2945 6.45601 30.5569 5.46897 31.6082C4.55218 32.5162 3.61139 34.2298 3.9738 36.5521C3.94851 36.5505 3.92372 36.5454 3.89862 36.5496C3.29827 34.2858 2.58318 32.5598 1.8571 31.2654C1.00491 29.8233 0.19326 29.001 0.19326 29.001C0.19326 29.001 0.0939104 29.3935 0.111452 30.0496C0.107695 30.7011 0.152501 31.6122 0.310383 32.5753C0.761289 34.4267 1.74709 36.5305 3.7287 37.2502Z" fill="white"/>
<path d="M70.3876 18.0784C69.6314 16.8986 69.3047 15.7998 69.3047 15.7998C69.3047 15.7998 70.2958 16.1288 71.5134 17.0855C72.6267 18.0813 73.9162 19.8154 73.8255 22.0843C72.1601 20.7652 71.0616 19.3527 70.3876 18.0784Z" fill="white"/>
<path d="M70.3876 18.0784C69.6314 16.8986 69.3047 15.7998 69.3047 15.7998C69.3047 15.7998 70.2958 16.1288 71.5134 17.0855C72.6267 18.0813 73.9162 19.8154 73.8255 22.0843C72.1601 20.7652 71.0616 19.3527 70.3876 18.0784Z" fill="white"/>
<path d="M76.7501 31.1845L76.8149 32.1113C76.8264 32.3087 76.6896 32.4837 76.4901 32.4886C76.2986 32.5043 76.1251 32.3442 76.115 32.1534L76.0495 31.2293C74.6822 30.4144 73.7441 29.2517 73.1537 28.215C72.8563 27.6404 72.5892 27.1229 72.3969 26.7514C72.2421 26.3571 72.1406 26.1183 72.1406 26.1183C72.1406 26.1183 73.0298 26.2033 74.1235 26.9077C74.8975 27.4904 75.9379 28.5536 76.3231 30.2474C76.326 30.247 76.3281 30.2451 76.331 30.2446C76.3188 28.4978 76.5319 27.1085 76.974 26.0037C77.3779 24.6987 77.9597 23.8926 77.9597 23.8926C77.9597 23.8926 78.0533 24.212 78.2037 24.7208C78.3326 25.2393 78.4997 25.9498 78.45 26.7808C78.4392 28.2857 78.0561 30.051 76.7501 31.1845Z" fill="white"/>
<path d="M76.7501 31.1845L76.8149 32.1113C76.8264 32.3087 76.6896 32.4837 76.4901 32.4886C76.2986 32.5043 76.1251 32.3442 76.115 32.1534L76.0495 31.2293C74.6822 30.4144 73.7441 29.2517 73.1537 28.215C72.8563 27.6404 72.5892 27.1229 72.3969 26.7514C72.2421 26.3571 72.1406 26.1183 72.1406 26.1183C72.1406 26.1183 73.0298 26.2033 74.1235 26.9077C74.8975 27.4904 75.9379 28.5536 76.3231 30.2474C76.326 30.247 76.3281 30.2451 76.331 30.2446C76.3188 28.4978 76.5319 27.1085 76.974 26.0037C77.3779 24.6987 77.9597 23.8926 77.9597 23.8926C77.9597 23.8926 78.0533 24.212 78.2037 24.7208C78.3326 25.2393 78.4997 25.9498 78.45 26.7808C78.4392 28.2857 78.0561 30.051 76.7501 31.1845Z" fill="white"/>
<path d="M75.897 26.387C75.9676 26.5798 75.8574 26.7796 75.6659 26.8401C75.4852 26.8978 75.2965 26.782 75.2274 26.6004L74.9329 25.7472C73.4425 25.306 72.4705 24.3324 71.6273 23.535C71.1904 23.0795 70.8769 22.6265 70.6678 22.2918C70.439 21.9662 70.2891 21.7751 70.2891 21.7751C70.2891 21.7751 71.2106 21.6111 72.2704 22.1104C73.1524 22.4904 74.2619 23.262 74.9862 24.7085C74.9941 24.7062 74.9999 24.7036 75.0071 24.7019C74.6413 23.1035 74.6291 21.7762 74.7781 20.6778C75.0085 19.3222 75.3239 18.4857 75.3239 18.4857C75.4456 18.3675 77.6732 22.7485 75.6162 25.5618L75.897 26.387Z" fill="white"/>
<path d="M75.897 26.387C75.9676 26.5798 75.8574 26.7796 75.6659 26.8401C75.4852 26.8978 75.2965 26.782 75.2274 26.6004L74.9329 25.7472C73.4425 25.306 72.4705 24.3324 71.6273 23.535C71.1904 23.0795 70.8769 22.6265 70.6678 22.2918C70.439 21.9662 70.2891 21.7751 70.2891 21.7751C70.2891 21.7751 71.2106 21.6111 72.2704 22.1104C73.1524 22.4904 74.2619 23.262 74.9862 24.7085C74.9941 24.7062 74.9999 24.7036 75.0071 24.7019C74.6413 23.1035 74.6291 21.7762 74.7781 20.6778C75.0085 19.3222 75.3239 18.4857 75.3239 18.4857C75.4456 18.3675 77.6732 22.7485 75.6162 25.5618L75.897 26.387Z" fill="white"/>
<path d="M73.8571 42.6539C73.5979 43.0251 73.1176 43.6996 73.0802 43.664C72.9347 43.8124 72.7043 43.8288 72.5675 43.6933C72.4322 43.5567 72.4221 43.3309 72.5582 43.195C72.5956 43.2217 73.078 42.5501 73.3207 42.2072C72.0643 38.3317 72.8419 35.2351 72.7043 35.0273C72.7043 35.0273 73.7037 35.5663 74.2495 36.8039C74.8319 37.8848 75.1495 39.8913 73.9269 41.9041C73.9348 41.91 73.9435 41.9128 73.9514 41.9189C73.9643 41.9277 73.9708 41.9422 73.9816 41.9524C75.4058 40.0825 76.6211 38.7289 77.7551 37.6699C79.0965 36.5098 80.0015 35.9171 80.0008 35.9115C80.075 35.8825 79.8079 37.6532 78.7307 39.5354C77.7386 41.2558 75.8759 42.731 73.8571 42.6539Z" fill="white"/>
<path d="M73.8571 42.6539C73.5979 43.0251 73.1176 43.6996 73.0802 43.664C72.9347 43.8124 72.7043 43.8288 72.5675 43.6933C72.4322 43.5567 72.4221 43.3309 72.5582 43.195C72.5956 43.2217 73.078 42.5501 73.3207 42.2072C72.0643 38.3317 72.8419 35.2351 72.7043 35.0273C72.7043 35.0273 73.7037 35.5663 74.2495 36.8039C74.8319 37.8848 75.1495 39.8913 73.9269 41.9041C73.9348 41.91 73.9435 41.9128 73.9514 41.9189C73.9643 41.9277 73.9708 41.9422 73.9816 41.9524C75.4058 40.0825 76.6211 38.7289 77.7551 37.6699C79.0965 36.5098 80.0015 35.9171 80.0008 35.9115C80.075 35.8825 79.8079 37.6532 78.7307 39.5354C77.7386 41.2558 75.8759 42.731 73.8571 42.6539Z" fill="white"/>
<path d="M69.4651 46.7454L67.1949 48.149C67.0227 48.2627 66.7995 48.175 66.7199 48.0056C66.637 47.8159 66.7211 47.6198 66.8831 47.5131L69.1225 46.1225C69.2205 43.9807 69.8053 42.2392 70.3028 41.0136C70.7653 39.6528 71.319 38.7779 71.2807 38.7383C71.2807 38.7383 72.0475 39.6101 72.1483 41.11C72.3687 42.5212 71.748 44.5723 69.6901 46.1154C69.7039 46.1303 69.7204 46.1427 69.7327 46.1611C71.8762 44.8098 73.7799 44.053 75.2652 43.3922C76.981 42.7663 78.156 42.5091 78.156 42.5091C78.156 42.5091 77.9969 42.9498 77.526 43.5507C77.0465 44.1296 76.4021 44.9518 75.5143 45.6334C73.8044 46.9251 71.4242 47.6943 69.4651 46.7454Z" fill="white"/>
<path d="M69.4651 46.7454L67.1949 48.149C67.0227 48.2627 66.7995 48.175 66.7199 48.0056C66.637 47.8159 66.7211 47.6198 66.8831 47.5131L69.1225 46.1225C69.2205 43.9807 69.8053 42.2392 70.3028 41.0136C70.7653 39.6528 71.319 38.7779 71.2807 38.7383C71.2807 38.7383 72.0475 39.6101 72.1483 41.11C72.3687 42.5212 71.748 44.5723 69.6901 46.1154C69.7039 46.1303 69.7204 46.1427 69.7327 46.1611C71.8762 44.8098 73.7799 44.053 75.2652 43.3922C76.981 42.7663 78.156 42.5091 78.156 42.5091C78.156 42.5091 77.9969 42.9498 77.526 43.5507C77.0465 44.1296 76.4021 44.9518 75.5143 45.6334C73.8044 46.9251 71.4242 47.6943 69.4651 46.7454Z" fill="white"/>
<path d="M76.3519 37.2502L76.0078 38.4974C75.9516 38.6945 75.763 38.8114 75.5808 38.7393C75.3979 38.6674 75.2957 38.457 75.3461 38.2675L75.6766 37.0681C74.4166 35.6327 73.6138 34.0794 73.243 32.8126C72.6814 31.4293 72.6727 30.3116 72.6094 30.2945C72.6094 30.2945 73.6246 30.5569 74.6117 31.6082C75.5283 32.5162 76.4693 34.2298 76.1071 36.5521C76.1323 36.5505 76.1568 36.5454 76.182 36.5496C76.7825 34.2858 77.4975 32.5598 78.2232 31.2654C79.0757 29.8233 79.8871 29.001 79.8871 29.001C79.8871 29.001 79.9865 29.3935 79.9692 30.0496C79.9728 30.7011 79.9282 31.6122 79.7705 32.5753C79.3191 34.4267 78.3334 36.5305 76.3519 37.2502Z" fill="white"/>
<path d="M76.3519 37.2502L76.0078 38.4974C75.9516 38.6945 75.763 38.8114 75.5808 38.7393C75.3979 38.6674 75.2957 38.457 75.3461 38.2675L75.6766 37.0681C74.4166 35.6327 73.6138 34.0794 73.243 32.8126C72.6814 31.4293 72.6727 30.3116 72.6094 30.2945C72.6094 30.2945 73.6246 30.5569 74.6117 31.6082C75.5283 32.5162 76.4693 34.2298 76.1071 36.5521C76.1323 36.5505 76.1568 36.5454 76.182 36.5496C76.7825 34.2858 77.4975 32.5598 78.2232 31.2654C79.0757 29.8233 79.8871 29.001 79.8871 29.001C79.8871 29.001 79.9865 29.3935 79.9692 30.0496C79.9728 30.7011 79.9282 31.6122 79.7705 32.5753C79.3191 34.4267 78.3334 36.5305 76.3519 37.2502Z" fill="white"/>
<path d="M33.8142 21.0019C34.7231 20.9851 35.6306 21.0782 36.5171 21.2794C37.2634 21.4424 37.972 21.7456 38.6053 22.173C39.1901 22.598 39.6528 23.1693 39.947 23.8297C40.2851 24.6417 40.4482 25.5159 40.4256 26.3952C40.464 27.3606 40.2175 28.3161 39.7166 29.1424C39.1898 29.9228 38.4615 30.5461 37.609 30.9462C38.7658 31.258 39.7734 31.9724 40.4506 32.9608C41.1007 34.0081 41.4274 35.2238 41.39 36.4559C41.4114 37.4383 41.2083 38.4125 40.7961 39.3045C40.4151 40.0825 39.8573 40.7606 39.1672 41.2844C38.4567 41.8025 37.6572 42.1857 36.8084 42.4152C35.9282 42.6587 35.0189 42.781 34.1056 42.7788H24.0781V21.0019H33.8142ZM33.2356 29.8098C33.9497 29.8392 34.6527 29.6255 35.2295 29.2035C35.5057 28.9575 35.7206 28.6504 35.857 28.3066C35.9933 27.9628 36.0474 27.5919 36.0148 27.2235C36.0333 26.7932 35.9476 26.3648 35.765 25.9747C35.6102 25.6642 35.3694 25.4046 35.0713 25.2269C34.7694 25.0313 34.4301 24.9004 34.0751 24.8425C33.6898 24.7679 33.2978 24.734 32.9054 24.7413H28.6208V29.8292H33.2356V29.8098ZM33.4854 39.0811C33.9172 39.0869 34.3482 39.0403 34.7688 38.9423C35.1532 38.8574 35.5178 38.6996 35.8427 38.4775C36.1611 38.2555 36.4183 37.9567 36.5906 37.6089C36.7903 37.1654 36.8821 36.6809 36.8584 36.1951C36.9017 35.7523 36.8431 35.3056 36.687 34.889C36.5309 34.4725 36.2815 34.0972 35.9579 33.7919C35.2721 33.2868 34.4316 33.0365 33.5811 33.0843H28.6208V39.0811H33.4854Z" fill="white"/>
<path d="M47.8562 39C48.2128 39.3305 48.6328 39.585 49.0908 39.7482C49.5487 39.9113 50.035 39.9797 50.5202 39.949C51.2894 39.9685 52.0436 39.7345 52.6667 39.2831C53.1736 38.9535 53.5574 38.4657 53.7587 37.8956H57.3814C56.9954 39.5187 56.0528 40.9552 54.7174 41.9554C53.4364 42.8057 51.9224 43.2363 50.3856 43.1875C49.2888 43.2019 48.2003 42.9957 47.1847 42.5811C46.266 42.198 45.4421 41.6189 44.7704 40.8842C44.1013 40.1144 43.5873 39.2225 43.2567 38.2577C42.8855 37.1792 42.7038 36.0446 42.7197 34.9041C42.7129 33.7828 42.9007 32.6687 43.2747 31.6116C43.7771 30.1243 44.7378 28.8345 46.0188 27.9271C47.2998 27.0197 48.8354 26.5415 50.4051 26.5611C51.564 26.5368 52.71 26.8081 53.7351 27.3492C54.6617 27.8573 55.461 28.5689 56.073 29.4304C56.699 30.3344 57.1477 31.3491 57.3953 32.4205C57.6668 33.5709 57.7636 34.7557 57.6825 35.935H46.8919C46.8045 37.043 47.1502 38.1417 47.8562 39ZM52.5904 30.718C52.2884 30.416 51.9252 30.1822 51.5253 30.0323C51.1254 29.8825 50.6979 29.8201 50.2719 29.8494C49.7066 29.8279 49.1454 29.9531 48.643 30.213C48.2446 30.4323 47.893 30.7273 47.6079 31.0815C47.3552 31.4136 47.167 31.7901 47.0529 32.1915C46.9501 32.5263 46.8858 32.8717 46.8614 33.2211H53.545C53.4868 32.3104 53.155 31.4385 52.5932 30.7194L52.5904 30.718Z" fill="white"/>
<path d="M54.3828 22.457H46.0078V24.5979H54.3828V22.457Z" fill="white"/>
</g>
<defs>
<clipPath id="clip0_3863_213">
<rect width="80" height="64" fill="white"/>
</clipPath>
</defs>
</svg>
