<svg width="24" height="24" viewBox="0 0 24 24" fill="none" xmlns="http://www.w3.org/2000/svg">
<path d="M9.73105 11.3119C10.2156 11.0787 10.5819 10.819 10.8329 10.5383C11.2795 10.0328 11.4999 9.36248 11.4999 8.5316C11.4999 7.72306 11.2795 7.03182 10.8388 6.4523C10.1032 5.5083 8.8583 5.02514 7.09822 5H0.125L0.125 18.6195H6.62682C7.35946 18.6195 8.0381 18.5594 8.66566 18.4365C9.29322 18.3123 9.83613 18.0846 10.2959 17.7523C10.7045 17.4632 11.046 17.1043 11.3175 16.6812C11.7465 16.0417 11.9611 15.3169 11.9611 14.5098C11.9611 13.7277 11.7728 13.0616 11.3992 12.5142C11.0212 11.9668 10.4666 11.5661 9.73105 11.3119ZM3.00156 7.36557H6.14228C6.8326 7.36557 7.40178 7.43679 7.84837 7.57783C8.36501 7.78311 8.62333 8.20064 8.62333 8.83742C8.62333 9.40856 8.42631 9.80794 8.03664 10.0328C7.64405 10.2576 7.1347 10.3707 6.51006 10.3707H3.00156V7.36557ZM7.96804 16.0165C7.6207 16.1771 7.13178 16.2567 6.50568 16.2567H3.00156V12.6246H6.55384C7.17265 12.6288 7.65426 12.707 7.99869 12.8536C8.61166 13.1189 8.91668 13.6049 8.91668 14.3157C8.91668 15.1535 8.60144 15.7177 7.96804 16.0165Z" fill="#0C5FFF"/>
<path d="M21.2305 5.08789H15.0469V6.78317H21.2305V5.08789Z" fill="#0C5FFF"/>
<path d="M22.9656 11.7179C22.8371 10.9289 22.554 10.2349 22.1132 9.63583C21.6302 8.95716 21.0172 8.46003 20.2714 8.14583C19.5286 7.83024 18.6923 7.67244 17.7612 7.67384C16.1981 7.67384 14.9284 8.14164 13.9462 9.07028C12.9669 10.0017 12.4766 11.3409 12.4766 13.0864C12.4766 14.9479 13.018 16.2927 14.1068 17.118C15.1911 17.9446 16.4433 18.3566 17.8648 18.3566C19.5855 18.3566 20.9238 17.8664 21.8797 16.8889C22.4912 16.2717 22.8371 15.6643 22.913 15.068H20.0642C19.8993 15.3626 19.7081 15.593 19.4892 15.7606C19.0922 16.0678 18.5756 16.2214 17.9422 16.2214C17.3394 16.2214 16.8286 16.0944 16.4025 15.8416C15.699 15.4366 15.3312 14.7272 15.2845 13.7176H23.059C23.0706 12.8476 23.0415 12.1787 22.9656 11.7179ZM15.3546 11.9791C15.4567 11.3241 15.7048 10.8047 16.0989 10.4206C16.4929 10.038 17.0505 9.8453 17.7641 9.8439C18.4223 9.8439 18.9725 10.024 19.4206 10.3857C19.8628 10.7502 20.1124 11.2794 20.1634 11.9791H15.3546Z" fill="#0C5FFF"/>
</svg>
