<svg width="24" height="24" viewBox="0 0 24 24" fill="none" xmlns="http://www.w3.org/2000/svg">
<path d="M4.49537 3C3.10934 3 2.20312 3.87085 2.20312 5.01547C2.20312 6.13481 3.08234 7.0305 4.44218 7.0305H4.46849C5.88162 7.0305 6.76107 6.13481 6.76107 5.01547C6.73465 3.87085 5.88162 3 4.49537 3Z" fill="#2878C9"/>
<path d="M2.44531 8.62207H6.49726V20.2863H2.44531V8.62207Z" fill="#2878C9"/>
<path d="M16.4381 8.34863C14.2522 8.34863 12.7864 10.314 12.7864 10.314V8.6224H8.73438V20.2867H12.7862V13.7729C12.7862 13.4242 12.8126 13.076 12.9197 12.8267C13.2126 12.1303 13.8792 11.4089 14.9986 11.4089C16.4648 11.4089 17.0512 12.4786 17.0512 14.0467V20.2867H21.1028V13.5986C21.1028 10.0158 19.1037 8.34863 16.4381 8.34863Z" fill="#2878C9"/>
</svg>
