<svg width="24" height="24" viewBox="0 0 24 24" fill="none" xmlns="http://www.w3.org/2000/svg">
<path d="M12 3.00012C7.02918 3.00012 3 7.02985 3 12.0001C3 16.9704 7.02918 21.0001 12 21.0001C16.9708 21.0001 21 16.9703 21 12.0001C21 7.02979 16.9708 3.00012 12 3.00012ZM17.9056 7.35609C18.8731 8.58462 19.4654 10.1191 19.5121 11.7891C17.4927 11.4353 15.7513 11.4246 14.2465 11.6631C14.0559 11.2255 13.8596 10.8003 13.6582 10.3885C15.272 9.72479 16.7193 8.7567 17.9056 7.35609ZM16.87 6.28062C15.8103 7.56704 14.48 8.45239 12.9748 9.05489C12.0112 7.26953 11.0201 5.78168 10.2281 4.69552C10.7968 4.55655 11.3891 4.48235 11.9994 4.48235C13.8573 4.48173 15.5572 5.16065 16.87 6.28062ZM8.76844 5.21354C9.53399 6.23557 10.5527 7.71607 11.5489 9.53127C9.43729 10.1112 7.07533 10.2676 4.6847 10.2743C5.21231 8.03786 6.7389 6.18386 8.76844 5.21354ZM4.48272 11.9994L4.4889 11.7564H4.52937C7.20799 11.7564 9.86746 11.581 12.2519 10.8784C12.4297 11.2401 12.6046 11.6113 12.7756 11.9933C9.6386 12.913 7.68277 14.9773 6.34235 16.9415C5.18586 15.6203 4.48272 13.8906 4.48272 11.9994ZM7.43809 17.9688C8.70709 16.0574 10.4756 14.1663 13.3533 13.372C14.0255 15.0944 14.574 16.9742 14.8642 18.9486C13.9811 19.3154 13.0142 19.5178 12.0006 19.5178C10.2855 19.5178 8.70375 18.9402 7.43809 17.9688ZM16.2469 18.1994C15.9392 16.3955 15.4352 14.6748 14.8282 13.0796C16.1434 12.9125 17.6553 12.953 19.408 13.2753C19.0576 15.3126 17.8865 17.0727 16.2469 18.1994Z" fill="#EA64DA"/>
</svg>
