<svg width="237" height="154" viewBox="0 0 237 154" fill="none" xmlns="http://www.w3.org/2000/svg">
<g filter="url(#filter0_f_3366_15099)">
<path d="M90.3624 29.6407C155.525 36.1416 332.41 343.995 323.238 407.148C312.437 481.51 267.311 193.19 177.112 387.153C111.949 380.652 29.9254 237.847 39.098 174.695C48.2706 111.543 25.1995 23.1398 90.3624 29.6407Z" fill="url(#paint0_linear_3366_15099)"/>
</g>
<g filter="url(#filter1_f_3366_15099)">
<path d="M-24.0828 -202.188C-27.1282 -131.781 34.4249 -71.7476 25.2523 -8.59529C16.0797 54.557 7.86321 33.0079 -57.2997 26.507C-122.463 20.0061 -156.984 -52.5747 -147.812 -115.727C-138.639 -178.879 -55.0306 -131.41 -24.0828 -202.188Z" fill="#EC748C" fill-opacity="0.76"/>
</g>
<defs>
<filter id="filter0_f_3366_15099" x="-35.2643" y="-44.3542" width="432.502" height="537.721" filterUnits="userSpaceOnUse" color-interpolation-filters="sRGB">
<feFlood flood-opacity="0" result="BackgroundImageFix"/>
<feBlend mode="normal" in="SourceGraphic" in2="BackgroundImageFix" result="shape"/>
<feGaussianBlur stdDeviation="36.828" result="effect1_foregroundBlur_3366_15099"/>
</filter>
<filter id="filter1_f_3366_15099" x="-209.647" y="-262.563" width="296.209" height="358.275" filterUnits="userSpaceOnUse" color-interpolation-filters="sRGB">
<feFlood flood-opacity="0" result="BackgroundImageFix"/>
<feBlend mode="normal" in="SourceGraphic" in2="BackgroundImageFix" result="shape"/>
<feGaussianBlur stdDeviation="30.188" result="effect1_foregroundBlur_3366_15099"/>
</filter>
<linearGradient id="paint0_linear_3366_15099" x1="61.5209" y1="65.2166" x2="180.966" y2="182.965" gradientUnits="userSpaceOnUse">
<stop stop-color="#FE2C7E"/>
<stop offset="0.0001" stop-color="#FE2C7E"/>
<stop offset="1" stop-color="#2C41FE" stop-opacity="0"/>
</linearGradient>
</defs>
</svg>
