<svg width="183" height="37" viewBox="0 0 183 37" fill="none" xmlns="http://www.w3.org/2000/svg">
<g clip-path="url(#clip0_5749_87634)">
<path d="M66.8283 25.122C62.1899 25.122 59.1836 21.7841 59.1836 18.3062V17.8715C59.1836 14.3346 62.1899 11.0557 66.8283 11.0557C71.4667 11.0557 74.4915 14.3346 74.4915 17.8715V18.3062C74.4915 21.773 71.4852 25.122 66.8283 25.122ZM72.0157 17.912C72.0157 15.3772 70.1736 13.1225 66.8283 13.1225C63.4831 13.1225 61.6704 15.3809 61.6704 17.912V18.2251C61.6704 20.7599 63.5125 23.0588 66.8283 23.0588C70.1441 23.0588 72.0157 20.7599 72.0157 18.2251V17.912Z" fill="white"/>
<path d="M14.4839 24.6146L12.7524 21.3725H5.05236L3.37973 24.6146H0.800781L7.85236 11.5283H9.8971L17.0887 24.6146H14.4839ZM8.82499 14.0815L5.9771 19.582H11.7724L8.82499 14.0815Z" fill="white"/>
<path d="M28.2615 25.1231C23.5678 25.1231 21.3867 22.5699 21.3867 19.1694V11.5283H23.822V19.1952C23.822 21.612 25.4136 23.0452 28.4383 23.0452C31.5441 23.0452 32.8225 21.612 32.8225 19.1952V11.5283H35.2762V19.1694C35.2762 22.4115 33.1946 25.1231 28.2615 25.1231Z" fill="white"/>
<path d="M48.9526 13.5694V24.622H46.4952V13.5694H40.7773V11.5283H54.6705V13.5694H48.9526Z" fill="white"/>
<path d="M96.3799 24.6146V14.2583L95.7315 15.3967L90.2494 24.6073H89.052L83.6289 15.3967L82.9805 14.2583V24.6146H80.582V11.5283H83.9826L89.1405 20.5067L89.7483 21.612L90.3562 20.5067L95.4662 11.5283H98.852V24.6146H96.3799Z" fill="white"/>
<path d="M117.415 24.6146L115.687 21.3725H108.002L106.333 24.6146H103.754L110.828 11.5283H112.861L120.053 24.6146H117.415ZM111.774 14.0815L108.927 19.582H114.722L111.774 14.0815Z" fill="white"/>
<path d="M129.945 13.5694V24.622H127.487V13.5694H121.77V11.5283H135.663V13.5694H129.945Z" fill="white"/>
<path d="M147.957 13.5694V24.622H145.503V13.5694H139.785V11.5283H153.678V13.5694H147.957Z" fill="white"/>
<path d="M159.73 24.6146V12.7662C160.714 12.7662 161.105 12.2357 161.105 11.5283H162.147V24.6146H159.73Z" fill="white"/>
<path d="M181.377 15.2186C179.961 13.8742 178.084 13.1228 176.131 13.1186C172.631 13.1186 170.667 15.5133 170.667 18.0112V18.2654C170.667 20.7412 172.649 23.0549 176.304 23.0549C178.217 23.0201 180.048 22.271 181.436 20.9549L182.91 22.506C181.074 24.2105 178.654 25.1455 176.149 25.1181C171.198 25.1181 168.191 21.8981 168.191 18.3612V17.9265C168.191 14.3897 171.47 11.0518 176.267 11.0518C179.038 11.0518 181.554 12.2086 182.899 13.6639L181.377 15.2186Z" fill="white"/>
<path d="M67.1214 15.8873L64.8711 19.3724C64.5863 19.8134 64.713 20.4017 65.154 20.6865L65.1571 20.6885C65.5981 20.9733 66.1865 20.8466 66.4712 20.4056L68.7215 16.9205C69.0063 16.4795 68.8796 15.8911 68.4386 15.6064L68.4355 15.6044C67.9945 15.3196 67.4061 15.4463 67.1214 15.8873Z" fill="white"/>
</g>
<defs>
<clipPath id="clip0_5749_87634">
<rect width="182" height="36" fill="white" transform="translate(0.855469 0.0869141)"/>
</clipPath>
</defs>
</svg>
