<svg width="175" height="29" viewBox="0 0 175 29" fill="none" xmlns="http://www.w3.org/2000/svg">
<path d="M125.955 14.7745C125.955 14.0139 126.785 13.72 127.666 13.72C129.101 13.72 130.467 14.1695 130.467 14.1695V12.0951C129.533 11.8186 128.582 11.7148 127.476 11.7148C125.056 11.7148 123.362 12.8557 123.362 14.7226C123.362 18.3354 128.358 17.4192 128.358 19.1651C128.358 20.0294 127.58 20.2714 126.439 20.2714C125.627 20.2714 124.347 19.9603 123.414 19.6318V21.6889C124.192 22 125.281 22.2766 126.353 22.2766C128.703 22.2766 130.951 21.5852 130.951 19.0614C130.951 15.5696 125.955 16.4685 125.955 14.7745ZM139.127 16.9006C139.127 14.5497 140.423 13.7546 141.945 13.7546C142.964 13.7546 144.036 14.0485 144.745 14.325V12.2161C143.898 11.9396 143.155 11.7321 141.893 11.7321C138.574 11.7321 136.517 13.7719 136.517 17.0389C136.517 20.1504 138.003 22.2939 141.737 22.2939C142.93 22.2939 143.846 22.0692 144.866 21.7234V19.6491C143.725 20.0986 142.843 20.2714 142.066 20.2714C140.423 20.2369 139.127 19.4763 139.127 16.9006ZM67.2861 13.6163H67.1997V11.9568H64.8661V22.0173H67.3726V16.0363C68.1504 14.5497 69.1012 14.0657 70.6915 14.0657H70.9508V11.8877C70.9508 11.8877 70.5878 11.8531 70.2766 11.8531C68.911 11.8358 67.9776 12.3717 67.2861 13.6163ZM98.6257 13.6163H98.5393V11.9568H96.2057V22.0173H98.6949V16.0363C99.4727 14.5497 100.423 14.0657 102.014 14.0657H102.273V11.8877C102.273 11.8877 101.91 11.8531 101.599 11.8531C100.251 11.8358 99.3172 12.3717 98.6257 13.6163ZM170.899 11.7148C169.827 11.7148 168.6 12.3026 167.476 13.0459L167.182 13.236C166.646 12.1124 165.592 11.7148 164.434 11.7148C163.362 11.7148 162.135 12.268 161.011 13.0113V11.9741H158.626V22.0346H161.149V14.809C162.083 14.1867 163.068 13.8065 163.794 13.8065C164.624 13.8065 165.125 14.2559 165.125 15.6733V22.0173H167.632V14.8263C168.565 14.204 169.55 13.8065 170.276 13.8065C171.106 13.8065 171.607 14.2559 171.607 15.6733V22.0173H174.097V15.0683C174.097 13.1323 172.938 11.7148 170.899 11.7148ZM151.538 20.2714C149.913 20.2714 149.049 19.217 149.049 17.0044C149.049 14.8263 149.913 13.7373 151.538 13.7373C153.163 13.7373 154.01 14.7918 154.01 17.0044C154.01 19.1824 153.163 20.2714 151.538 20.2714ZM151.538 11.7148C148.081 11.7148 146.456 13.9447 146.456 17.0044C146.456 20.064 148.081 22.2766 151.538 22.2766C154.961 22.2766 156.62 20.0813 156.62 17.0044C156.62 13.9275 154.961 11.7148 151.538 11.7148ZM116.863 14.7745C116.863 14.0139 117.692 13.72 118.574 13.72C120.009 13.72 121.374 14.1695 121.374 14.1695V12.0951C120.441 11.8186 119.49 11.7148 118.384 11.7148C115.964 11.7148 114.27 12.8557 114.27 14.7226C114.27 18.3354 119.265 17.4192 119.265 19.1651C119.265 20.0294 118.487 20.2714 117.347 20.2714C116.534 20.2714 115.255 19.9603 114.321 19.6318V21.6889C115.099 22 116.188 22.2766 117.26 22.2766C119.611 22.2766 121.858 21.5852 121.858 19.0614C121.858 15.5696 116.863 16.4685 116.863 14.7745ZM106.024 15.8808C106.18 14.4806 106.94 13.599 108.185 13.599C109.516 13.599 109.914 14.6535 109.914 15.8808H106.024ZM108.202 11.7148C104.987 11.7148 103.31 14.2213 103.31 16.9352C103.31 20.6863 105.281 22.2766 108.479 22.2766C109.775 22.2766 110.882 22.1037 112.195 21.7062V19.6318C111.141 20.0121 110.207 20.2541 109.187 20.2541C107.321 20.2541 106.076 19.7528 106.024 17.5402H112.455C112.489 17.1427 112.541 16.7624 112.541 16.0536C112.524 13.9275 111.4 11.7148 108.202 11.7148ZM89.4296 15.0165H87.4417V9.93438H89.4296C91.0372 9.93438 91.8496 10.816 91.8496 12.4063C91.8496 13.9793 91.1063 15.0165 89.4296 15.0165ZM89.4123 7.84277H84.7796V22.0173H87.4417V17.0908H89.395C92.42 17.0908 94.6326 15.4659 94.6326 12.4063C94.6499 9.34666 92.4373 7.84277 89.4123 7.84277ZM79.1962 19.1305C78.3838 19.8738 77.6232 20.2714 76.828 20.2714C75.4451 20.2714 74.5636 19.3553 74.5636 17.2291C74.5636 14.93 75.6699 13.72 77.5713 13.72C78.159 13.72 78.7814 13.8756 79.1962 14.0312V19.1305ZM79.1962 11.9396C78.4529 11.784 77.9343 11.7148 77.312 11.7148C73.8548 11.7148 71.9707 14.0139 71.9707 17.3847C71.9707 20.7209 73.8548 22.2766 76.0847 22.2766C77.191 22.2766 78.5221 21.7753 79.3172 21.0839V22.0173H81.7027V7.84277H79.2135V11.9396H79.1962ZM57.7788 20.2714C56.1539 20.2714 55.2896 19.217 55.2896 17.0044C55.2896 14.8263 56.1539 13.7373 57.7788 13.7373C59.4037 13.7373 60.2507 14.7918 60.2507 17.0044C60.2507 19.1824 59.4037 20.2714 57.7788 20.2714ZM57.7788 11.7148C54.3216 11.7148 52.6967 13.9447 52.6967 17.0044C52.6967 20.064 54.3216 22.2766 57.7788 22.2766C61.2015 22.2766 62.8609 20.0813 62.8609 17.0044C62.8609 13.9275 61.2015 11.7148 57.7788 11.7148ZM132.61 22.0173H135.117V19.4417H132.61V22.0173ZM50.4323 7.84277L47.5973 18.6984L44.7797 7.84277H41.9275L42.5844 10.1764L40.0952 19.0787L37.3813 7.86006H34.6328L38.4876 22.0346H41.4781L43.7944 14.446L45.9552 22.0346H48.9457L52.9906 7.86006H50.4323V7.84277Z" fill="white"/>
<path d="M14.5003 0.0869141C6.78306 0.0869141 0.5 6.36997 0.5 14.0872C0.5 21.8044 6.78306 28.0875 14.5003 28.0875C22.2175 28.0875 28.5006 21.8044 28.5006 14.0872C28.5006 6.36997 22.2175 0.0869141 14.5003 0.0869141ZM1.9171 14.0872C1.9171 12.2603 2.30979 10.5359 3.00981 8.96515L9.01969 25.424C4.8196 23.3752 1.9171 19.0727 1.9171 14.0872ZM14.5003 26.6704C13.271 26.6704 12.0758 26.4826 10.949 26.1582L14.7222 15.1799L18.5979 25.7826C18.615 25.8509 18.6492 25.9021 18.6833 25.9533C17.3686 26.4143 15.9686 26.6704 14.5003 26.6704ZM16.2418 8.17976C16.993 8.14562 17.676 8.06025 17.676 8.06025C18.3589 7.97488 18.2735 6.98462 17.5906 7.01876C17.5906 7.01876 15.5588 7.17243 14.2271 7.17243C12.9978 7.17243 10.9148 7.01876 10.9148 7.01876C10.2319 6.98462 10.1636 8.00903 10.8295 8.06025C10.8295 8.06025 11.4783 8.14562 12.1441 8.17976L14.1076 13.5579L11.3758 21.8215L6.80013 8.17976C7.55136 8.14562 8.23431 8.06025 8.23431 8.06025C8.91725 7.97488 8.83188 6.98462 8.14894 7.01876C8.14894 7.01876 6.11719 7.17243 4.80253 7.17243C4.5635 7.17243 4.29032 7.17243 4.00007 7.15535C6.25378 3.74065 10.1124 1.48694 14.5174 1.48694C17.7955 1.48694 20.7833 2.73331 23.02 4.79921C22.9688 4.79921 22.9175 4.78213 22.8492 4.78213C21.6199 4.78213 20.7321 5.85777 20.7321 7.01876C20.7321 8.06025 21.3297 8.931 21.9614 9.97248C22.4395 10.8091 23.0029 11.8847 23.0029 13.4384C23.0029 14.514 22.5931 15.7604 22.0468 17.5019L20.7833 21.702L16.2418 8.17976ZM25.5469 8.04318C26.5371 9.8359 27.0835 11.9018 27.0835 14.0872C27.0835 18.7312 24.5737 22.7776 20.8175 24.963L24.659 13.8482C25.3761 12.0555 25.6152 10.6213 25.6152 9.34076C25.6322 8.87978 25.5981 8.45294 25.5469 8.04318Z" fill="white"/>
</svg>
