<svg width="154" height="25" viewBox="0 0 154 25" fill="none" xmlns="http://www.w3.org/2000/svg">
<g clip-path="url(#clip0_5749_87611)">
<path d="M18.3301 23.5894H22.7385V0.0869141H18.3301V23.5894Z" fill="white"/>
<path d="M36.2659 15.4359C36.2659 12.3536 34.2775 10.7966 32.1228 10.7966C29.9681 10.7966 27.9796 12.3536 27.9796 15.4359C27.9796 18.4866 29.9681 20.0765 32.1228 20.0765C34.2775 20.0765 36.2659 18.5195 36.2659 15.4359ZM40.6744 15.4359C40.6744 20.442 36.9956 24.0877 32.1228 24.0877C27.25 24.0877 23.5713 20.442 23.5713 15.4359C23.5713 10.3981 27.25 6.7854 32.1228 6.7854C36.9956 6.7854 40.6744 10.3981 40.6744 15.4359Z" fill="white"/>
<path d="M45.464 15.4359C45.464 18.3862 47.3865 20.0435 49.6402 20.0435C51.8938 20.0435 53.022 18.5525 53.3862 17.2924L57.2641 18.5855C56.5345 21.3036 53.9826 24.0877 49.6402 24.0877C44.8346 24.0877 41.0557 20.442 41.0557 15.4359C41.0557 10.3981 44.7673 6.7854 49.5082 6.7854C53.9496 6.7854 56.4685 9.53652 57.1651 12.2876L53.2199 13.6137C52.8227 12.2547 51.7948 10.8626 49.6072 10.8626C47.3535 10.8626 45.464 12.4869 45.464 15.4359Z" fill="white"/>
<path d="M67.1354 14.1433L73.7974 23.5894H68.3954L64.086 17.3575L62.2638 19.2814V23.5894H57.8555V0.0869141H62.2638V13.3477L67.898 7.28203H73.6655" fill="white"/>
<path d="M86.9356 7.28223L90.4493 17.7892L93.4658 7.28223H97.8413L92.7361 23.5897H88.3276L84.5161 12.4533L80.7713 23.5897H76.2953L71.0928 7.28223H75.732L78.7486 17.7562L82.2953 7.28223" fill="white"/>
<path d="M109.606 15.4359C109.606 12.3536 107.617 10.7966 105.463 10.7966C103.308 10.7966 101.32 12.3536 101.32 15.4359C101.32 18.4866 103.308 20.0765 105.463 20.0765C107.617 20.0765 109.606 18.5195 109.606 15.4359ZM114.014 15.4359C114.014 20.442 110.335 24.0877 105.463 24.0877C100.59 24.0877 96.9111 20.442 96.9111 15.4359C96.9111 10.3981 100.59 6.7854 105.463 6.7854C110.335 6.7854 114.014 10.3981 114.014 15.4359Z" fill="white"/>
<path d="M124.781 11.6573C124.284 11.5571 123.853 11.5241 123.455 11.5241C121.201 11.5241 119.245 12.6179 119.245 16.1317V23.5894H114.837V7.28195H119.113V9.70185C120.108 7.54716 122.362 7.14868 123.754 7.14868C124.117 7.14868 124.449 7.18167 124.781 7.21466" fill="white"/>
<path d="M134.766 14.1433L141.429 23.5894H136.026L131.718 17.3575L129.895 19.2814V23.5894H125.486V0.0869141H129.895V13.3477L135.529 7.28203H141.296" fill="white"/>
<path d="M144.022 18.22C144.121 19.5131 145.081 20.7059 147.004 20.7059C148.463 20.7059 149.158 19.9446 149.158 19.083C149.158 18.3533 148.663 17.7569 147.403 17.4916L145.248 16.9942C142.099 16.2988 140.673 14.4093 140.673 12.1214C140.673 9.20532 143.26 6.7854 146.773 6.7854C151.412 6.7854 152.971 9.73572 153.17 11.492L149.491 12.3206C149.358 11.36 148.663 10.1329 146.806 10.1329C145.645 10.1329 144.718 10.8296 144.718 11.7572C144.718 12.5529 145.314 13.0503 146.209 13.2152L148.529 13.7127C151.745 14.3751 153.369 16.3318 153.369 18.7174C153.369 21.3696 151.313 24.0877 147.037 24.0877C142.132 24.0877 140.442 20.9052 140.243 19.05" fill="white"/>
<path opacity="0.8" d="M12.6025 11.9674V17.7256H17.2207C17.2207 14.9072 15.2441 12.5532 12.6025 11.9674Z" fill="white"/>
<path opacity="0.6" d="M0.855469 17.7259H6.73111V11.8502H0.855469V17.7259Z" fill="white"/>
<path opacity="0.5" d="M0.855469 23.6004H6.73111V17.7261H0.855469V23.6004Z" fill="white"/>
<path opacity="0.8" d="M0.855469 5.97427H6.73111V0.0986328H0.855469V5.97427Z" fill="white"/>
<path opacity="0.7" d="M0.855469 11.8488H6.73111V5.97449H0.855469V11.8488Z" fill="white"/>
<path opacity="0.9" d="M11.7105 0.142176C11.5244 0.109189 11.3357 0.0986328 11.1471 0.0986328H6.7334V5.97295H12.6077V0.377042C12.3175 0.275443 12.0179 0.196274 11.7105 0.142176Z" fill="white"/>
<path d="M16.5649 5.97579C16.5649 5.96788 16.5663 5.95863 16.5663 5.9494C16.5663 3.36982 14.909 1.18212 12.6025 0.379883V5.97579" fill="white"/>
<path opacity="0.9" d="M16.5649 5.97449H12.6025V11.5176C14.9011 10.718 16.5531 8.54216 16.5649 5.97449Z" fill="white"/>
<path opacity="0.8" d="M6.7334 5.97449V11.8488L10.6694 11.825C11.5046 11.825 11.9995 11.7287 12.6077 11.5163V5.97449" fill="white"/>
<path opacity="0.7" d="M11.8636 11.8522H11.8741C11.6959 11.8364 11.5165 11.8245 11.3344 11.8245C11.1523 11.8245 6.7334 11.8522 6.7334 11.8522V17.7278H12.6077V11.9696C12.3649 11.9155 12.1169 11.8759 11.8636 11.8522Z" fill="white"/>
<path opacity="0.6" d="M6.7334 17.7261V23.6004H11.8636C12.1169 23.5779 12.3649 23.5383 12.6077 23.4829V17.7261" fill="white"/>
<path opacity="0.7" d="M12.6025 23.4843C15.2441 22.8971 17.2207 20.5444 17.2207 17.7261H12.6025" fill="white"/>
</g>
<defs>
<clipPath id="clip0_5749_87611">
<rect width="153" height="24" fill="white" transform="translate(0.855469 0.0869141)"/>
</clipPath>
</defs>
</svg>
