<svg width="128" height="37" viewBox="0 0 128 37" fill="none" xmlns="http://www.w3.org/2000/svg">
<g clip-path="url(#clip0_5749_87648)">
<path fill-rule="evenodd" clip-rule="evenodd" d="M65.2233 12.9424C68.1474 12.9424 70.6759 15.2096 70.7858 18.5555V19.5461H62.431C62.7168 21.131 63.8381 22.0995 65.1793 22.0995C66.0368 22.0995 67.1141 21.9894 67.9056 20.6467L70.5 21.197C69.5326 23.4863 67.5758 24.5869 65.1793 24.5869C62.0792 24.5869 59.5508 22.2316 59.5508 18.7756C59.5508 15.3197 62.0792 12.9424 65.2233 12.9424ZM67.8176 17.4989C67.4439 16.0901 66.3885 15.4738 65.2233 15.4738C64.1239 15.4738 62.8707 16.1342 62.5189 17.4989H67.8176ZM84.7781 13.2726H87.6583L84.0085 24.2787H81.3922L79.2375 17.8071L77.0608 24.2787H74.4445L70.7947 13.2726H73.675L75.8516 20.0303L78.0942 13.2726H80.3588L82.6014 20.0524L84.7781 13.2726ZM47.6523 18.3316C47.6523 15.3574 50.0634 12.9463 53.0377 12.9463C56.0119 12.9463 58.423 15.3574 58.423 18.3316V24.2468H47.6523V18.3316ZM50.582 18.0682C50.582 16.7097 51.6833 15.6084 53.0418 15.6084C54.4003 15.6084 55.5016 16.7097 55.5016 18.0682V24.2451H50.582V18.0682ZM111.325 18.5555C111.215 15.2096 108.687 12.9424 105.762 12.9424C102.618 12.9424 100.09 15.3197 100.09 18.7756C100.09 22.2316 102.618 24.5869 105.718 24.5869C108.115 24.5869 110.072 23.4863 111.039 21.197L108.445 20.6467C107.653 21.9894 106.576 22.0995 105.718 22.0995C104.377 22.0995 103.256 21.131 102.97 19.5461H111.325V18.5555ZM105.762 15.4738C106.928 15.4738 107.983 16.0901 108.357 17.4989H103.058C103.41 16.1342 104.663 15.4738 105.762 15.4738ZM128.197 13.2726H125.317L123.14 20.0524L120.898 13.2726H118.633L116.391 20.0303L114.214 13.2726H111.334L114.984 24.2787H117.6L119.777 17.8071L121.931 24.2787H124.548L128.197 13.2726ZM88.1836 18.3316C88.1836 15.3574 90.5947 12.9463 93.5689 12.9463C96.5432 12.9463 98.9543 15.3574 98.9543 18.3316V24.2468H88.1836V18.3316ZM91.1133 18.0682C91.1133 16.7097 92.2146 15.6084 93.5731 15.6084C94.9316 15.6084 96.0329 16.7097 96.0329 18.0682V24.2451H91.1133V18.0682Z" fill="white"/>
<path fill-rule="evenodd" clip-rule="evenodd" d="M11.6903 14.9436C9.95673 16.6792 9.95673 19.4933 11.6903 21.229C13.424 22.9646 16.2347 22.9646 17.9683 21.229L21.1073 18.0863L27.3853 24.3717L24.2463 27.5144C19.0455 32.7213 10.6132 32.7213 5.41236 27.5144C0.211506 22.3074 0.211505 13.8652 5.41236 8.65817L8.55135 5.51548L14.8293 11.8009L11.6903 14.9436Z" fill="white"/>
<path fill-rule="evenodd" clip-rule="evenodd" d="M30.52 21.229C32.2536 19.4933 32.2536 16.6792 30.52 14.9436C28.7864 13.2079 25.9757 13.2079 24.242 14.9436L21.1073 18.0863L14.8293 11.8009L17.9641 8.65817C23.1649 3.45118 31.5972 3.45118 36.798 8.65817C41.9989 13.8652 41.9989 22.3074 36.798 27.5144L33.659 30.657L27.3853 24.3717L30.52 21.229Z" fill="white"/>
</g>
<defs>
<clipPath id="clip0_5749_87648">
<rect width="127" height="36" fill="white" transform="translate(0.855469 0.0869141)"/>
</clipPath>
</defs>
</svg>
