<svg width="159" height="29" viewBox="0 0 159 29" fill="none" xmlns="http://www.w3.org/2000/svg">
<g clip-path="url(#clip0_5749_87533)">
<path fill-rule="evenodd" clip-rule="evenodd" d="M46.5744 2.00488C47.0258 2.00458 47.4671 2.13815 47.8426 2.38871C48.2181 2.63928 48.5108 2.99557 48.6838 3.41252C48.8567 3.82948 48.9022 4.28836 48.8143 4.73113C48.7264 5.17389 48.5092 5.58065 48.1901 5.89995C47.871 6.21925 47.4644 6.43674 47.0217 6.52492C46.579 6.6131 46.1201 6.568 45.703 6.39533C45.286 6.22265 44.9295 5.93016 44.6786 5.55486C44.4278 5.17955 44.2939 4.73829 44.2939 4.28688C44.2939 3.68193 44.5342 3.10173 44.9618 2.67382C45.3894 2.2459 45.9694 2.0053 46.5744 2.00488Z" fill="white"/>
<path fill-rule="evenodd" clip-rule="evenodd" d="M80.6979 20.488C77.0735 20.488 74.3761 17.8778 74.3761 14.2316C74.3761 10.5854 77.0735 7.97514 80.6979 7.97514C84.383 7.97514 86.9777 10.5698 86.9777 14.2394C86.9767 14.6119 86.9507 14.984 86.8999 15.3531H77.8108C77.9698 15.9554 78.325 16.4875 78.8203 16.8651C79.973 17.7238 82.143 17.6429 83.0499 16.4327L86.6728 16.4063C85.7752 19.0336 83.4341 20.488 80.7041 20.488H80.6979ZM114.211 20.2423V8.22092H117.126L117.437 9.44359C118.639 8.08248 120.346 7.80092 122.062 8.23648V11.3305C120.797 11.1018 119.372 10.9711 118.367 11.962C117.843 12.4785 117.555 13.2345 117.555 14.1865V20.2423H114.211ZM136.586 8.22092H138.697V8.02026C138.697 3.91826 141.341 2.29114 145.075 3.44692V6.27648C143.435 5.83626 142.038 5.96537 142.038 8.02492V8.22092H145.075V11.2185H142.04V20.2407H138.694V11.2185H136.586V8.22092ZM64.5108 8.22092H66.6186V5.45048L69.9599 4.99937V8.22092H73.0026V11.2185H69.9599V15.8229C69.9599 17.6538 71.5668 17.5978 72.987 17.3583V20.2298C72.3304 20.3667 71.6619 20.4381 70.9912 20.4429C69.5912 20.4429 68.4868 20.0914 67.7246 19.354C67.0043 18.6509 66.6108 17.6009 66.6108 16.1791V11.2185H64.5108V8.22092ZM44.833 20.2423V8.22092H48.1743V20.2423H44.833ZM129.242 20.488C125.618 20.488 122.919 17.8778 122.919 14.2316C122.919 10.5854 125.618 7.97514 129.242 7.97514C132.921 7.97514 135.522 10.5698 135.522 14.2425C135.52 14.615 135.494 14.9871 135.444 15.3563H126.344C126.502 15.9589 126.858 16.4912 127.354 16.8683C128.505 17.7269 130.675 17.646 131.582 16.4358L135.206 16.4094C134.307 19.0367 131.967 20.4911 129.237 20.4911L129.242 20.488ZM126.367 13.0416H132.149C131.322 10.3271 127.221 10.3489 126.367 13.0416ZM158.855 8.21937V19.3914C158.855 22.8836 156.62 24.9369 153.523 25.3025C151.337 25.556 148.991 25.0769 147.509 23.3347L149.922 21.468C151.21 23.1791 155.615 22.6798 155.613 19.7569V18.9247C154.623 19.998 153.299 20.4647 151.855 20.4647C148.573 20.4647 147.189 18.234 147.189 15.1758V8.22092H150.53V14.8149C150.53 16.3145 151.189 17.3707 152.793 17.3707C154.422 17.3707 155.506 16.4063 155.506 14.748V8.2147L158.855 8.21937ZM51.329 20.2423V8.22092H54.2441L54.5708 9.53692C55.5617 8.47292 56.8855 7.99692 58.3243 7.99692C61.6066 7.99692 62.991 10.2276 62.991 13.2858V20.2376H59.6466V13.6483C59.6466 12.1487 58.987 11.0925 57.3832 11.0925C55.7546 11.0925 54.6703 12.0569 54.6703 13.7167V20.2423H51.329ZM89.2394 20.2423V8.22092H92.1546L92.4657 9.44359C93.6681 8.08248 95.373 7.80092 97.0903 8.23648V11.3305C95.8241 11.1018 94.4008 10.9711 93.3959 11.962C92.8717 12.4785 92.5839 13.2345 92.5839 14.1865V20.2423H89.2394ZM77.831 13.0416H83.613C82.7839 10.3271 78.6835 10.3489 77.831 13.0416ZM110.202 18.7256C108.206 20.8131 104.722 21.0698 102.401 19.3758V25.36H99.0581V8.22092H101.804L102.082 9.34092C103.15 8.44461 104.504 7.96014 105.898 7.97514C109.49 7.97514 111.907 10.7145 111.907 14.2316C111.907 16.0065 111.285 17.5931 110.196 18.7256H110.202ZM102.378 14.2316C102.378 16.0407 103.656 17.3427 105.472 17.3427C107.287 17.3427 108.542 16.0205 108.542 14.2316C108.542 12.4427 107.279 11.1205 105.472 11.1205C103.664 11.1205 102.378 12.4225 102.378 14.2316Z" fill="white"/>
<path fill-rule="evenodd" clip-rule="evenodd" d="M12.123 8.00156V19.8627C12.1213 20.415 11.9012 20.9442 11.5107 21.3348C11.1201 21.7253 10.5909 21.9455 10.0385 21.9471C9.48622 21.9455 8.95699 21.7253 8.56643 21.3348C8.17588 20.9442 7.95574 20.415 7.9541 19.8627V8.00156C7.95574 7.44923 8.17588 6.92 8.56643 6.52945C8.95699 6.13889 9.48622 5.91876 10.0385 5.91711C10.5909 5.91876 11.1201 6.13889 11.5107 6.52945C11.9012 6.92 12.1213 7.44923 12.123 8.00156Z" fill="white"/>
<path d="M4.66889 12.2933C4.66889 11.1421 3.73565 10.2089 2.58444 10.2089C1.43324 10.2089 0.5 11.1421 0.5 12.2933V15.5709C0.5 16.7221 1.43324 17.6553 2.58444 17.6553C3.73565 17.6553 4.66889 16.7221 4.66889 15.5709V12.2933Z" fill="white"/>
<path d="M29.4101 8.00156C29.4101 6.85035 28.4769 5.91711 27.3257 5.91711C26.1744 5.91711 25.2412 6.85035 25.2412 8.00156V19.8627C25.2412 21.0139 26.1744 21.9471 27.3257 21.9471C28.4769 21.9471 29.4101 21.0139 29.4101 19.8627V8.00156Z" fill="white"/>
<path d="M36.8642 12.2933C36.8642 11.1421 35.931 10.2089 34.7798 10.2089C33.6285 10.2089 32.6953 11.1421 32.6953 12.2933V15.5709C32.6953 16.7221 33.6285 17.6553 34.7798 17.6553C35.931 17.6553 36.8642 16.7221 36.8642 15.5709V12.2933Z" fill="white"/>
<path d="M21.9573 10.7985C21.9573 8.98918 20.4906 7.52246 18.6813 7.52246C16.872 7.52246 15.4053 8.98918 15.4053 10.7985V24.8109C15.4053 26.6202 16.872 28.0869 18.6813 28.0869C20.4906 28.0869 21.9573 26.6202 21.9573 24.8109V10.7985Z" fill="white"/>
<path fill-rule="evenodd" clip-rule="evenodd" d="M18.6829 0.0869145C19.2238 0.0869146 19.7526 0.247339 20.2024 0.547897C20.6521 0.848455 21.0026 1.27564 21.2096 1.77543C21.4165 2.27521 21.4706 2.82514 21.3649 3.35566C21.2593 3.88618 20.9987 4.37344 20.6161 4.75583C20.2335 5.13822 19.746 5.39855 19.2155 5.50389C18.6849 5.60923 18.135 5.55486 17.6353 5.34764C17.1357 5.14042 16.7087 4.78967 16.4084 4.33975C16.1081 3.88983 15.9479 3.36096 15.9482 2.82003C15.9482 2.46098 16.019 2.10545 16.1564 1.77375C16.2939 1.44205 16.4953 1.14069 16.7493 0.886874C17.0033 0.633061 17.3047 0.431774 17.6365 0.294514C17.9683 0.157253 18.3239 0.0867102 18.6829 0.0869145Z" fill="white"/>
</g>
<defs>
<clipPath id="clip0_5749_87533">
<rect width="158.356" height="28" fill="white" transform="translate(0.5 0.0869141)"/>
</clipPath>
</defs>
</svg>
