<svg width="601" height="91" viewBox="0 0 601 91" fill="none" xmlns="http://www.w3.org/2000/svg">
<path d="M37.1999 32.2001C37.1999 32.2001 32.1999 31.7001 32.1999 36.1001V55.8H64.9999V61.7001C64.9999 61.7001 65.0999 64.6001 61.9999 64.6001H32.1999V90.2001H67.9999C67.9999 90.2001 89.6999 86.9001 89.8999 64.6001V32.2001H37.1999ZM88.8999 0.800049H24.2999C0.899904 6.30005 0.399902 25.5 0.399902 25.5V90.3H25.1999V31.3C25.1999 26.3 30.1999 25.4 30.1999 25.4H88.7999L88.8999 0.800049ZM174.2 71.7001C172.5 72.8001 171.2 73.7001 170.3 74.2001C167.1 76.2001 164.1 77.7 161.3 78.9C157.2 80.6 153.6 81.4 150.3 81.4C139.1 81.4 129.8 78.0001 122.4 71.1001C114.9 64.2001 111.2 55.5001 111.2 45.1001C111.2 35.0001 114.5 26.3 121.3 18.8C128 11.4 136.2 7.70004 145.8 7.70004C149.8 7.70004 154.1 8.40005 158.5 9.80005C164.3 11.6 168.9 14.4 172.7 17.9L166.3 25C163.6 22.3 160 20.4 155.9 19.2C152.8 18.3 149.4 17.8 145.6 17.8C138.9 17.8 133.2 20.5 128.6 25.9C124.1 31.4 121.8 37.8 121.8 45.4C121.8 52.9 124.4 59.1 129.6 64C134.8 68.9 141.4 71.4 149.4 71.4C152.7 71.4 156.1 70.3 159.6 68.3C162.5 66.1 164 65 164 65V49.4H142.3L145.4 39.7001H174.2V71.7001ZM239.5 52.7001C239.5 60.2001 236.8 66.7001 231.5 72.2001C226.2 77.7001 219.6 80.5 211.7 80.5C204.4 80.5 198.1 77.8 192.6 72.4C187.1 67 184.4 60.5 184.4 52.8C184.4 45.2 187 38.7001 192.2 33.1001C197.4 27.5001 203.8 24.8 211.2 24.8C219.5 24.8 226.2 27.5 231.5 32.8C236.8 38 239.5 44.7001 239.5 52.7001ZM229.4 52.9C229.4 47.8 227.7 43.5 224.3 40C220.9 36.4 216.7 34.7001 211.6 34.7001C206.9 34.7001 202.9 36.5001 199.5 40.2001C196.2 43.8001 194.5 48.0001 194.5 52.7001C194.5 57.6001 196.2 61.8 199.5 65.3C202.8 68.8 207 70.6001 212 70.6001C216.7 70.6001 220.7 68.9 224.1 65.4C227.7 61.8 229.4 57.6 229.4 52.9ZM304 52.7001C304 60.2001 301.3 66.7001 296 72.2001C290.7 77.7001 284.1 80.5 276.2 80.5C268.9 80.5 262.6 77.8 257.1 72.4C251.6 67 248.9 60.5 248.9 52.8C248.9 45.2 251.5 38.7001 256.7 33.1001C261.9 27.5001 268.3 24.8 275.7 24.8C284 24.8 290.7 27.5 296 32.8C301.3 38 304 44.7001 304 52.7001ZM293.8 52.9C293.8 47.8 292.1 43.5 288.7 40C285.3 36.4 281.1 34.7001 276 34.7001C271.3 34.7001 267.3 36.5001 263.9 40.2001C260.6 43.8001 258.9 48.0001 258.9 52.7001C258.9 57.6001 260.6 61.8 263.9 65.3C267.2 68.8 271.4 70.6001 276.4 70.6001C281.1 70.6001 285.1 68.9 288.5 65.4C292.1 61.8 293.8 57.6 293.8 52.9ZM363.6 79L354.3 80.4V71.4L352.3 73.7001C350.5 75.4001 348.5 76.7 346.4 77.8C343.2 79.3 339.8 80 336.3 80C329 80 322.8 77.3 317.8 72C312.8 66.7 310.2 60.2 310.2 52.8C310.2 45.1 312.7 38.5001 317.7 33.1001C322.7 27.6001 328.7 24.9 336 24.9C340.2 24.9 343.8 25.6 346.8 26.9C349 27.9 350.8 29.2 352.4 30.8C352.9 31.5 353.4 32.2 354 32.9V9.20004L363.9 7.80005L363.6 79ZM354.9 53.4C354.9 48.1 353.1 43.6 349.5 40C345.9 36.3 341.8 34.5 337.1 34.5C331.9 34.5 327.8 36.2001 324.6 39.7001C321.6 43.0001 320.1 47.1 320.1 51.9C320.1 57.3 321.7 61.8 324.8 65.3C327.9 68.8 331.8 70.5 336.7 70.5C341.4 70.5 345.6 68.9001 349.3 65.6001C353 62.3001 354.9 58.2 354.9 53.4ZM416 19H388.2V37.9H409.8V47.6001H388.2V78.9L377.4 80.5V9.20004H413.9L416 19ZM438.3 13.5L431.6 21.9L425.2 13.5L431.9 5.20004L438.3 13.5ZM436.3 79L426.4 80.4V27.6001L436.3 26.1001V79ZM481.1 25.5L476.4 36.3C475.8 36.2 475.2 36.2001 474.5 36.2001C473.5 36.2001 472.6 36.3 471.6 36.4C470.6 36.5 469.6 36.9 468.5 37.5C466.4 38.4 464.6 40.4 463.1 43.3C461.4 46.7 460.5 50.4001 460.5 54.2001V78.9L450.6 80.5V27.6001L459.8 25.9V36.9C461 35 462.2 33.1001 463.4 31.1001C465.1 29.1001 467.1 27.7 469.3 26.8C470.5 26.3 472.6 26.0001 475.9 25.7001C479.1 25.5001 480.9 25.4 481.1 25.5ZM555.1 79L545.2 80.4V44.2001C545.2 40.9001 544.5 38.4 543 36.9C541.5 35.4 539.3 34.6001 536.4 34.6001C532.9 34.6001 530.3 36 528.5 38.9C527.3 40.9 526.6 43.0001 526.6 45.1001V78.8L516.7 80.6001V44.3C516.7 41.1 516 38.7 514.5 37C513 35.3 511.1 34.5 508.6 34.5H507.6C504.1 34.5 501.6 35.9 500 38.9C498.8 41.1 498.2 43.9 498.2 47.3V78.7001L487.9 80.5V27.4L497.2 25.8V32.6001C498.2 31.0001 499.3 29.7 500.2 28.8C502.9 26.3 506 25.1001 509.5 25.1001C513.4 25.1001 516.3 25.7 518.3 27C520 28.1 521.6 30.2001 523.3 33.2001C526.7 27.8001 531.5 25.1001 537.9 25.1001C544 25.1001 548.5 27 551.5 30.9C553.9 34.1 555.1 38.8 555.1 44.9V79ZM600.4 63C600.4 67.9 598.7 71.9 595.3 75C591.9 78.2 587.6 79.7001 582.4 79.7001C578.5 79.7001 575 78.8 571.8 77C568.6 75.2 566.2 73.1001 564.7 70.7001L571.7 64.5C572.2 65.3 572.7 65.9 573.1 66.3C575.7 69 578.8 70.3 582.4 70.3C584.9 70.3 586.9 69.6 588.3 68.3C589.8 67 590.5 65.2 590.5 62.8C590.5 60.1 588.8 58.3 585.4 57.3C578.7 55.3 575 54.1 574.5 53.9C571.4 52.3 569.2 50.6001 567.8 48.7001C566.2 46.5001 565.4 43.6 565.4 39.9C565.4 35.3 567.1 31.6 570.4 28.5C573.7 25.5 577.7 24 582.3 24C585.8 24 589 24.8 592 26.4C595 28 597.1 29.7001 598.4 31.6001L592.5 38C591.6 37.1 590.6 36.3001 589.6 35.6001C587.2 33.9001 584.9 33.1001 582.8 33.1001C580.7 33.1001 579 33.6 577.7 34.5C576.1 35.6 575.3 37.3 575.3 39.5C575.3 41.6 576 43.2001 577.6 44.2001C578.9 45.0001 581.7 45.9 586.2 46.9C590.6 48 594.1 49.8 596.5 52.4C599.3 55.2 600.4 58.6 600.4 63Z" fill="#3A7AF3"/>
</svg>
