<svg width="32" height="32" viewBox="0 0 32 32" fill="none" xmlns="http://www.w3.org/2000/svg">
<path d="M31.9995 27.3327C32.0026 30.944 28.3442 33.1085 25.3642 31.3699C23.0648 30.0286 20.607 29.1783 17.9772 28.9021C13.9528 28.4793 10.1732 29.3009 6.64831 31.3412C5.12117 32.2249 3.57509 32.2326 2.08964 31.2854C0.579174 30.3226 -0.130963 28.8742 0.0198558 27.0565C0.0676025 26.4809 0.2548 25.8843 0.507933 25.3638C3.9131 18.3483 7.32813 11.3383 10.7704 4.3414C11.8391 2.16841 13.6224 1.01094 16.0006 1.00007C18.3758 0.989213 20.1485 2.16997 21.2073 4.31503C24.6768 11.3429 28.0987 18.3948 31.5365 25.439C31.8457 26.0721 32.0101 26.7439 31.9995 27.3327Z" fill="black"/>
</svg>
