<svg width="90" height="40" viewBox="0 0 90 40" fill="none" xmlns="http://www.w3.org/2000/svg">
<path d="M70.9253 32.8954V10.5177H87.0529V15.4128H77.0005V19.259H86.2225V24.1541H77.0005V28.0002H87.0092V32.8954H70.9253Z" fill="white"/>
<path d="M53.9699 10.5177L57.6413 17.03H57.8161L61.5311 10.5177H68.3056L61.6185 21.7065L68.5678 32.8954H61.6185L57.8161 26.252H57.6413L53.8388 32.8954H46.9332L53.7951 21.7065L47.1518 10.5177H53.9699Z" fill="white"/>
<path d="M46.1493 21.7065C46.1493 24.1978 45.6649 26.2993 44.696 28.0112C43.7272 29.7157 42.4197 31.0087 40.7734 31.8901C39.1271 32.7642 37.2915 33.2013 35.2664 33.2013C33.2268 33.2013 31.3838 32.7606 29.7376 31.8792C28.0986 30.9905 26.7947 29.6939 25.8259 27.9893C24.8643 26.2775 24.3835 24.1832 24.3835 21.7065C24.3835 19.2153 24.8643 17.1174 25.8259 15.4128C26.7947 13.701 28.0986 12.408 29.7376 11.5339C31.3838 10.6525 33.2268 10.2118 35.2664 10.2118C37.2915 10.2118 39.1271 10.6525 40.7734 11.5339C42.4197 12.408 43.7272 13.701 44.696 15.4128C45.6649 17.1174 46.1493 19.2153 46.1493 21.7065ZM39.8993 21.7065C39.8993 20.3662 39.7208 19.2371 39.3639 18.3193C39.0142 17.3942 38.4934 16.6949 37.8014 16.2214C37.1166 15.7406 36.2717 15.5003 35.2664 15.5003C34.2612 15.5003 33.4125 15.7406 32.7205 16.2214C32.0358 16.6949 31.515 17.3942 31.158 18.3193C30.8084 19.2371 30.6335 20.3662 30.6335 21.7065C30.6335 23.0469 30.8084 24.1796 31.158 25.1047C31.515 26.0225 32.0358 26.7218 32.7205 27.2026C33.4125 27.6761 34.2612 27.9128 35.2664 27.9128C36.2717 27.9128 37.1166 27.6761 37.8014 27.2026C38.4934 26.7218 39.0142 26.0225 39.3639 25.1047C39.7208 24.1796 39.8993 23.0469 39.8993 21.7065Z" fill="white"/>
<path d="M7.51289 10.5177L12.102 26.2957H12.2769L16.866 10.5177H23.7279L16.3416 32.8954H8.03736L0.651001 10.5177H7.51289Z" fill="white"/>
</svg>
