<svg width="191" height="50" viewBox="0 0 191 50" fill="none" xmlns="http://www.w3.org/2000/svg">
<g clip-path="url(#clip0_116_17254)">
<path d="M125.855 29.5983H127.281V25.5631H130.446V24.3616H127.281V21.6051H131.18V20.4035H125.856L125.855 29.5983Z" fill="white" stroke="white" stroke-width="0.239541" stroke-miterlimit="10"/>
<path d="M135.966 20.4017H134.541V29.5991H135.966V20.4017Z" fill="white" stroke="white" stroke-width="0.239541" stroke-miterlimit="10"/>
<path d="M146.021 27.205L141.544 20.4582L141.507 20.4017H140.136V29.5982H141.562V22.7833L146.076 29.5982H147.443V20.4017H146.017L146.021 27.205Z" fill="white" stroke="white" stroke-width="0.239541" stroke-miterlimit="10"/>
<path d="M154.087 20.4017L150.756 29.5982H152.262L152.983 27.5986H156.716L157.436 29.5982H158.942L155.62 20.4017H154.087ZM156.286 26.3881H153.405L154.846 22.3529L156.286 26.3881Z" fill="white" stroke="white" stroke-width="0.239541" stroke-miterlimit="10"/>
<path d="M168.128 27.205L163.614 20.4008H162.248V29.5983H163.673V22.7833L168.149 29.5427L168.187 29.5992H169.553V20.4017H168.128V27.205Z" fill="white" stroke="white" stroke-width="0.239541" stroke-miterlimit="10"/>
<path d="M180.485 26.8301C180.27 27.3178 179.913 27.7296 179.459 28.012C178.971 28.296 178.412 28.4383 177.847 28.4227C177.278 28.4312 176.718 28.2865 176.226 28.0039C175.746 27.7223 175.357 27.3109 175.103 26.8176C174.833 26.2515 174.693 25.6328 174.693 25.0063C174.693 24.3797 174.833 23.761 175.103 23.1949C175.357 22.7018 175.747 22.2904 176.226 22.0086C176.718 21.726 177.278 21.5813 177.847 21.5898C178.413 21.5741 178.972 21.7187 179.459 22.0068C179.912 22.2926 180.269 22.7062 180.485 23.1949L180.519 23.2685H182.189L182.121 23.0963C181.811 22.2503 181.234 21.5269 180.477 21.0339C179.69 20.5419 178.776 20.29 177.847 20.3094C177.028 20.301 176.222 20.5102 175.512 20.9155C174.815 21.3157 174.241 21.8964 173.85 22.5959C173.451 23.3372 173.242 24.1654 173.242 25.0067C173.242 25.848 173.451 26.6762 173.85 27.4175C174.242 28.1134 174.817 28.69 175.513 29.0853C176.224 29.4868 177.029 29.6938 177.847 29.6852C178.775 29.7053 179.688 29.456 180.476 28.9679C181.231 28.4822 181.808 27.7667 182.121 26.9279L182.19 26.7548H180.519L180.485 26.8301Z" fill="white" stroke="white" stroke-width="0.239541" stroke-miterlimit="10"/>
<path d="M190.898 21.6158V20.4017H185.819V29.5982H190.898V28.3841H187.244V25.5622H190.513V24.3481H187.244V21.6158H190.898Z" fill="white" stroke="white" stroke-width="0.239541" stroke-miterlimit="10"/>
<path d="M109.947 21.2365L119.245 16.9996L118.541 15.4681L109.406 19.6323C108.156 16.5751 105.878 14.0455 102.962 12.4763C100.045 10.9071 96.6719 10.3959 93.4188 11.0301C90.1657 11.6643 87.2351 13.4046 85.1283 15.9531C83.0215 18.5016 81.8695 21.6999 81.8695 25.0009C81.8695 28.3018 83.0215 31.5002 85.1283 34.0487C87.2351 36.5972 90.1657 38.3374 93.4188 38.9716C96.6719 39.6059 100.045 39.0946 102.962 37.5254C105.878 35.9563 108.156 33.4266 109.406 30.3694L118.542 34.5328L119.247 33.0012L109.947 28.7634C110.622 26.2994 110.622 23.7005 109.947 21.2365ZM106.853 25.0027C106.853 25.7562 106.773 26.5076 106.615 27.2444L101.689 25.0027L106.615 22.7609C106.773 23.4969 106.853 24.2474 106.853 25V25.0027ZM103.719 32.5349C102.089 34.1554 99.9769 35.2085 97.6975 35.5376C95.4181 35.8667 93.0929 35.4541 91.0679 34.3614C89.0429 33.2686 87.4263 31.554 86.4586 29.4727C85.4909 27.3914 85.2239 25.0546 85.6972 22.81C86.1706 20.5654 87.359 18.533 89.0857 17.0151C90.8124 15.4972 92.985 14.575 95.2804 14.3857C97.5758 14.1964 99.8712 14.7501 101.825 15.9645C103.779 17.1788 105.287 18.9889 106.125 21.1253L99.6567 24.0728L94.1312 21.5549L93.4271 23.0864L97.6243 24.9991L93.4271 26.9117L94.1312 28.4433L99.6567 25.9254L106.125 28.8719C105.587 30.2462 104.767 31.493 103.719 32.5349Z" fill="white"/>
<path d="M14.2484 33.6325L4.17103 11.2151L4.13413 11.1335H0V38.8702H3.90359V18.8594L12.8823 38.8702H15.6126L24.5517 18.9007V38.8702H28.4553V11.1299H24.3608L14.2484 33.6325Z" fill="white"/>
<path d="M73.6803 24.8332C72.2382 24.233 70.7557 23.7341 69.2436 23.3402C67.7407 22.9205 66.5575 22.5412 65.7263 22.2121C64.9338 21.9059 64.2244 21.4188 63.6552 20.79C63.0843 20.1251 62.787 19.2698 62.8231 18.3958C62.7927 17.7914 62.9031 17.1881 63.1457 16.6332C63.3883 16.0783 63.7565 15.5869 64.2216 15.1973C65.2634 14.4005 66.5535 13.9942 67.8659 14.0495C69.2467 13.9833 70.6068 14.4036 71.7073 15.2367C72.5916 15.8996 73.18 16.8811 73.3462 17.9708L73.357 18.0604H77.5389L77.528 17.9528C77.4477 16.9316 77.1528 15.9385 76.6622 15.0381C76.1717 14.1376 75.4966 13.3499 74.6807 12.726C72.8151 11.3597 70.5381 10.6665 68.2242 10.7604C66.5591 10.7306 64.907 11.0585 63.3805 11.7217C62.0429 12.2996 60.8988 13.246 60.083 14.4494C59.2959 15.6574 58.8883 17.0717 58.9124 18.5115C58.8369 19.994 59.2575 21.4595 60.1082 22.6784C60.8518 23.6697 61.8401 24.4527 62.9771 24.9516C64.4105 25.5372 65.8853 26.0167 67.3895 26.3863C68.5874 26.6918 69.7678 27.0615 70.9257 27.4937C71.7524 27.8087 72.4911 28.3167 73.0797 28.975C73.6665 29.6778 73.9701 30.5726 73.9315 31.4858C73.9471 32.1 73.824 32.7099 73.5714 33.2705C73.3187 33.831 72.943 34.328 72.4718 34.7247C71.3314 35.6206 69.9016 36.0708 68.4512 35.9908C66.9809 36.0932 65.5276 35.6265 64.3945 34.6879C63.486 33.8491 62.922 32.7047 62.8114 31.4759L62.8024 31.3863H58.7502V31.4867C58.7533 32.935 59.2052 34.347 60.0443 35.5299C60.9262 36.732 62.1169 37.6754 63.4913 38.2613C65.0566 38.935 66.7479 39.2694 68.453 39.2423C70.1958 39.283 71.922 38.8976 73.4804 38.1196C74.8073 37.4571 75.9243 36.442 76.7077 35.1865C77.4201 34.0238 77.7971 32.6882 77.7973 31.3262C77.8769 29.8276 77.4484 28.3459 76.5808 27.1189C75.8206 26.128 74.8235 25.3422 73.6803 24.8332Z" fill="white"/>
<path d="M44.5425 24.7651L37.8708 11.1299H33.5367L42.6136 28.3304V38.8702H46.5172V28.3304L55.5509 11.1317H51.2178L44.5425 24.7651Z" fill="white"/>
</g>
<defs>
<clipPath id="clip0_116_17254">
<rect width="191" height="28.4917" fill="white" transform="translate(0 10.7542)"/>
</clipPath>
</defs>
</svg>
