<svg width="23" height="18" viewBox="0 0 23 18" fill="none" xmlns="http://www.w3.org/2000/svg">
<g clip-path="url(#clip0_2320_159925)">
<rect width="22.1331" height="16.5998" transform="translate(0.28125 0.700073)" fill="white"/>
<path fill-rule="evenodd" clip-rule="evenodd" d="M0.28125 0.699707H22.4143V17.2995H0.28125V0.699707Z" fill="#F7FCFF"/>
<path fill-rule="evenodd" clip-rule="evenodd" d="M0.28125 10.8427V12.226H22.4143V10.8427H0.28125Z" fill="#E31D1C"/>
<path fill-rule="evenodd" clip-rule="evenodd" d="M0.28125 13.3793V14.7626H22.4143V13.3793H0.28125Z" fill="#E31D1C"/>
<path fill-rule="evenodd" clip-rule="evenodd" d="M0.28125 5.77124V7.15456H22.4143V5.77124H0.28125Z" fill="#E31D1C"/>
<path fill-rule="evenodd" clip-rule="evenodd" d="M0.28125 15.9154V17.2987H22.4143V15.9154H0.28125Z" fill="#E31D1C"/>
<path fill-rule="evenodd" clip-rule="evenodd" d="M0.28125 8.30786V9.69118H22.4143V8.30786H0.28125Z" fill="#E31D1C"/>
<path fill-rule="evenodd" clip-rule="evenodd" d="M0.28125 0.699707V2.08302H22.4143V0.699707H0.28125Z" fill="#E31D1C"/>
<path fill-rule="evenodd" clip-rule="evenodd" d="M0.28125 3.23523V4.61855H22.4143V3.23523H0.28125Z" fill="#E31D1C"/>
<rect x="0.28125" y="0.699707" width="13.8332" height="8.99156" fill="#2E42A5"/>
<path d="M1.70215 7.59229H2.19824L1.80859 7.98975L1.95996 8.61572L1.47363 8.26416L0.97168 8.61572L1.1416 7.98975L0.695312 7.59229H1.27734L1.47266 7.08154L1.70215 7.59229ZM4.46777 7.59229H4.96387L4.57422 7.98975L4.72559 8.61572L4.23926 8.26416L3.7373 8.61572L3.90723 7.98975L3.46094 7.59229H4.04297L4.23828 7.08154L4.46777 7.59229ZM7.2334 7.59229H7.72949L7.33984 7.98975L7.49121 8.61572L7.00488 8.26416L6.50293 8.61572L6.67285 7.98975L6.22656 7.59229H6.80859L7.00391 7.08154L7.2334 7.59229ZM9.99902 7.59229H10.4951L10.1055 7.98975L10.2568 8.61572L9.77051 8.26416L9.26855 8.61572L9.43848 7.98975L8.99219 7.59229H9.57422L9.76953 7.08154L9.99902 7.59229ZM12.7646 7.59229H13.2607L12.8711 7.98975L13.0225 8.61572L12.5361 8.26416L12.0342 8.61572L12.2041 7.98975L11.7578 7.59229H12.3398L12.5352 7.08154L12.7646 7.59229ZM3.08496 6.20947H3.58105L3.19141 6.60693L3.34277 7.23291L2.85645 6.88135L2.35449 7.23291L2.52441 6.60693L2.07812 6.20947H2.66016L2.85547 5.69873L3.08496 6.20947ZM5.8584 6.20947H6.35449L5.96484 6.60693L6.11621 7.23291L5.62988 6.88135L5.12793 7.23291L5.29785 6.60693L4.85156 6.20947H5.43359L5.62891 5.69873L5.8584 6.20947ZM8.62402 6.20947H9.12012L8.73047 6.60693L8.88184 7.23291L8.39551 6.88135L7.89355 7.23291L8.06348 6.60693L7.61719 6.20947H8.19922L8.39453 5.69873L8.62402 6.20947ZM11.3896 6.20947H11.8857L11.4961 6.60693L11.6475 7.23291L11.1611 6.88135L10.6592 7.23291L10.8291 6.60693L10.3828 6.20947H10.9648L11.1602 5.69873L11.3896 6.20947ZM1.70215 4.82568H2.19824L1.80859 5.22217L1.95996 5.84912L1.47363 5.49658L0.97168 5.84912L1.1416 5.22217L0.695312 4.82568H1.27734L1.47266 4.31396L1.70215 4.82568ZM4.46777 4.82568H4.96387L4.57422 5.22217L4.72559 5.84912L4.23926 5.49658L3.7373 5.84912L3.90723 5.22217L3.46094 4.82568H4.04297L4.23828 4.31396L4.46777 4.82568ZM7.2334 4.82568H7.72949L7.33984 5.22217L7.49121 5.84912L7.00488 5.49658L6.50293 5.84912L6.67285 5.22217L6.22656 4.82568H6.80859L7.00391 4.31396L7.2334 4.82568ZM9.99902 4.82568H10.4951L10.1055 5.22217L10.2568 5.84912L9.77051 5.49658L9.26855 5.84912L9.43848 5.22217L8.99219 4.82568H9.57422L9.76953 4.31396L9.99902 4.82568ZM12.7646 4.82568H13.2607L12.8711 5.22217L13.0225 5.84912L12.5361 5.49658L12.0342 5.84912L12.2041 5.22217L11.7578 4.82568H12.3398L12.5352 4.31396L12.7646 4.82568ZM3.08496 3.44287H3.58105L3.19141 3.83936L3.34277 4.46631L2.85645 4.11377L2.35449 4.46631L2.52441 3.83936L2.07812 3.44287H2.66016L2.85547 2.93115L3.08496 3.44287ZM5.8584 3.44287H6.35449L5.96484 3.83936L6.11621 4.46631L5.62988 4.11377L5.12793 4.46631L5.29785 3.83936L4.85156 3.44287H5.43359L5.62891 2.93115L5.8584 3.44287ZM8.62402 3.44287H9.12012L8.73047 3.83936L8.88184 4.46631L8.39551 4.11377L7.89355 4.46631L8.06348 3.83936L7.61719 3.44287H8.19922L8.39453 2.93115L8.62402 3.44287ZM11.3896 3.44287H11.8857L11.4961 3.83936L11.6475 4.46631L11.1611 4.11377L10.6592 4.46631L10.8291 3.83936L10.3828 3.44287H10.9648L11.1602 2.93115L11.3896 3.44287ZM1.70215 2.06006H2.19824L1.80859 2.45752L1.95996 3.0835L1.47363 2.73193L0.97168 3.0835L1.1416 2.45752L0.695312 2.06006H1.27734L1.47266 1.54932L1.70215 2.06006ZM4.46777 2.06006H4.96387L4.57422 2.45752L4.72559 3.0835L4.23926 2.73193L3.7373 3.0835L3.90723 2.45752L3.46094 2.06006H4.04297L4.23828 1.54932L4.46777 2.06006ZM7.2334 2.06006H7.72949L7.33984 2.45752L7.49121 3.0835L7.00488 2.73193L6.50293 3.0835L6.67285 2.45752L6.22656 2.06006H6.80859L7.00391 1.54932L7.2334 2.06006ZM9.99902 2.06006H10.4951L10.1055 2.45752L10.2568 3.0835L9.77051 2.73193L9.26855 3.0835L9.43848 2.45752L8.99219 2.06006H9.57422L9.76953 1.54932L9.99902 2.06006ZM12.7646 2.06006H13.2607L12.8711 2.45752L13.0225 3.0835L12.5361 2.73193L12.0342 3.0835L12.2041 2.45752L11.7578 2.06006H12.3398L12.5352 1.54932L12.7646 2.06006Z" fill="#F7FCFF"/>
</g>
<defs>
<clipPath id="clip0_2320_159925">
<rect width="22.1331" height="16.5998" fill="white" transform="translate(0.28125 0.700073)"/>
</clipPath>
</defs>
</svg>
