<svg width="122" height="120" viewBox="0 0 122 120" fill="none" xmlns="http://www.w3.org/2000/svg">
<g clip-path="url(#clip0_3117_4627)">
<path d="M38.7077 54.5772C36.8339 56.2194 34.3986 57.1358 31.7741 57.1358C25.7803 57.1358 21.4648 52.9351 21.4648 46.9076C21.4648 40.8799 25.7741 36.8575 31.7741 36.8575C34.3986 36.8575 36.8339 37.5894 38.7077 39.4161L40.0198 40.5111L45.6412 35.0308L44.3291 33.7515C40.7706 30.83 36.4554 29.0033 31.7741 29.0033C21.0928 28.8188 13.2188 36.3101 13.2188 46.9076C13.2188 57.1358 21.2755 64.9962 31.7741 64.9962C36.6447 64.9962 41.143 63.354 44.7076 60.2481L46.0198 58.9688L40.0263 53.1258L38.7077 54.5772Z" fill="black"/>
<path d="M31.3705 53.1057C34.7851 53.1057 37.5533 50.407 37.5533 47.0782C37.5533 43.7494 34.7851 41.0508 31.3705 41.0508C27.9557 41.0508 25.1875 43.7494 25.1875 47.0782C25.1875 50.407 27.9557 53.1057 31.3705 53.1057Z" fill="#FF3D2E"/>
</g>
<path d="M105.564 57.3362C104.049 58.4242 102.342 58.9682 100.444 58.9682C98.5236 58.9682 96.8169 58.4349 95.3236 57.3682C93.8089 56.2802 92.6569 54.8509 91.8676 53.0802C91.0783 51.2882 90.6836 49.2616 90.6836 47.0002C90.6836 43.6082 91.5796 40.7816 93.3716 38.5202C95.2063 36.1949 97.5849 35.0322 100.508 35.0322C102.428 35.0322 104.134 35.5549 105.628 36.6002C107.142 37.7096 108.294 39.1496 109.084 40.9202C109.873 42.6909 110.268 44.7069 110.268 46.9682C110.268 49.2082 109.873 51.2242 109.084 53.0162C108.252 54.8722 107.078 56.3122 105.564 57.3362ZM103.644 39.5762C102.662 38.7869 101.596 38.3922 100.444 38.3922C99.2703 38.3922 98.2143 38.7762 97.2756 39.5442C95.3983 41.1229 94.4596 43.5976 94.4596 46.9682C94.4169 49.3362 94.9716 51.3736 96.1236 53.0802C97.2756 54.7656 98.7369 55.5976 100.508 55.5762C101.702 55.5762 102.758 55.1816 103.676 54.3922C104.572 53.6456 105.265 52.6216 105.756 51.3202C106.246 49.9762 106.492 48.5362 106.492 47.0002C106.492 43.6936 105.542 41.2189 103.644 39.5762Z" fill="black"/>
<path d="M83.8125 56.2483C83.8125 55.5016 84.0685 54.8723 84.5805 54.3603C85.1352 53.8483 85.7432 53.5923 86.4045 53.5923C87.0872 53.5923 87.7058 53.8483 88.2605 54.3603C88.7512 54.851 88.9965 55.4803 88.9965 56.2483C88.9965 56.9736 88.7512 57.5816 88.2605 58.0723C87.7485 58.5843 87.1298 58.8403 86.4045 58.8403C85.7218 58.8403 85.1138 58.5736 84.5805 58.0403C84.0685 57.571 83.8125 56.9736 83.8125 56.2483Z" fill="black"/>
<path d="M72.1184 58.9361C70.0917 58.9361 68.2677 58.3814 66.6464 57.2721C65.025 56.1627 64.0544 54.5307 63.7344 52.3761L67.2544 51.6081C67.4037 53.0801 68.0544 54.1467 69.2064 54.8081C70.1877 55.3627 71.1797 55.6401 72.1824 55.6401C73.2917 55.6401 74.3264 55.2774 75.2864 54.5521C76.3317 53.7627 76.8544 52.6321 76.8544 51.1601C76.8544 49.7521 76.3957 48.6427 75.4784 47.8321C74.561 47.0427 73.4624 46.6481 72.1824 46.6481C70.4117 46.6481 68.961 47.2881 67.8304 48.5681L64.5024 47.2881L67.2224 35.3521H79.6064V38.6481H69.8144L68.3744 44.9201C69.121 44.2801 70.0384 43.8534 71.1264 43.6401C71.7664 43.5334 72.4064 43.4801 73.0464 43.4801C75.3504 43.4801 77.2064 44.1841 78.6144 45.5921C79.9797 46.9787 80.6624 48.8027 80.6624 51.0641C80.6624 53.5174 79.809 55.4587 78.1024 56.8881C76.481 58.2534 74.4864 58.9361 72.1184 58.9361Z" fill="black"/>
<path d="M3.53476 90.9753C3.37875 90.9753 3.20045 90.9311 3.06673 90.8203C2.79928 90.621 2.68785 90.3108 2.75471 90.0007L3.62392 86.1021C3.6462 85.9692 3.60162 85.8585 3.51247 85.7699L0.481245 83.1118C0.236085 82.8903 0.146935 82.5579 0.258372 82.27C0.369809 81.9599 0.61497 81.7384 0.94928 81.7163L4.93902 81.3396C5.07275 81.3175 5.18419 81.251 5.22876 81.1402L6.83345 77.4854C6.96718 77.1974 7.2569 76.998 7.56892 76.998C7.90323 76.998 8.19297 77.1753 8.30441 77.4854L9.90926 81.1402C9.95383 81.251 10.0653 81.3396 10.199 81.3396L14.1879 81.7163C14.5231 81.7384 14.7908 81.9599 14.879 82.27C14.9913 82.5802 14.9015 82.9124 14.6561 83.1339L11.6482 85.792C11.5584 85.8806 11.5135 86.0135 11.5359 86.1242L12.405 90.0228C12.4723 90.3329 12.3617 90.6652 12.0939 90.8425C11.8261 91.0418 11.4917 91.0418 11.2019 90.8867L7.74723 88.8711C7.6358 88.8045 7.50206 88.8045 7.39063 88.8711L3.93594 90.8646C3.80222 90.9311 3.66849 90.9753 3.53476 90.9753Z" fill="black"/>
<path d="M30.2496 90.9753C30.0936 90.9753 29.9153 90.9311 29.7816 90.8203C29.5141 90.621 29.4027 90.3108 29.4696 90.0007L30.3388 86.1021C30.361 85.9692 30.3165 85.8585 30.2273 85.7699L27.1961 83.1118C26.9509 82.8903 26.8618 82.5579 26.9732 82.27C27.0847 81.9599 27.3298 81.7384 27.6641 81.7163L31.6539 81.3396C31.7876 81.3175 31.899 81.251 31.9436 81.1402L33.5483 77.4854C33.682 77.1974 33.9717 76.998 34.2838 76.998C34.6181 76.998 34.9078 77.1753 35.0193 77.4854L36.6241 81.1402C36.6687 81.251 36.7801 81.3396 36.9138 81.3396L40.9028 81.7163C41.2379 81.7384 41.5057 81.9599 41.5939 82.27C41.7061 82.5802 41.6163 82.9124 41.371 83.1339L38.363 85.792C38.2732 85.8806 38.2283 86.0135 38.2508 86.1242L39.1198 90.0228C39.1871 90.3329 39.0765 90.6652 38.8087 90.8425C38.541 91.0418 38.2065 91.0418 37.9168 90.8867L34.4621 88.8711C34.3506 88.8045 34.2169 88.8045 34.1055 88.8711L30.6508 90.8646C30.5171 90.9311 30.3833 90.9753 30.2496 90.9753Z" fill="black"/>
<path d="M56.9684 90.9753C56.8123 90.9753 56.634 90.9311 56.5003 90.8203C56.2329 90.621 56.1214 90.3108 56.1883 90.0007L57.0575 86.1021C57.0798 85.9692 57.0352 85.8585 56.9461 85.7699L53.9148 83.1118C53.6697 82.8903 53.5805 82.5579 53.692 82.27C53.8034 81.9599 54.0486 81.7384 54.3829 81.7163L58.3726 81.3396C58.5063 81.3175 58.6178 81.251 58.6624 81.1402L60.267 77.4854C60.4008 77.1974 60.6905 76.998 61.0025 76.998C61.3368 76.998 61.6266 77.1753 61.738 77.4854L63.3428 81.1402C63.3874 81.251 63.4989 81.3396 63.6326 81.3396L67.6215 81.7163C67.9567 81.7384 68.2244 81.9599 68.3126 82.27C68.4248 82.5802 68.3351 82.9124 68.0897 83.1339L65.0817 85.792C64.992 85.8806 64.9471 86.0135 64.9695 86.1242L65.8386 90.0228C65.9059 90.3329 65.7953 90.6652 65.5275 90.8425C65.2597 91.0418 64.9252 91.0418 64.6355 90.8867L61.1808 88.8711C61.0694 88.8045 60.9357 88.8045 60.8242 88.8711L57.3695 90.8646C57.2358 90.9311 57.1021 90.9753 56.9684 90.9753Z" fill="black"/>
<path d="M83.6832 90.9753C83.5272 90.9753 83.3489 90.9311 83.2152 90.8203C82.9477 90.621 82.8363 90.3108 82.9031 90.0007L83.7724 86.1021C83.7946 85.9692 83.7501 85.8585 83.6609 85.7699L80.6297 83.1118C80.3845 82.8903 80.2954 82.5579 80.4068 82.27C80.5182 81.9599 80.7634 81.7384 81.0977 81.7163L85.0875 81.3396C85.2212 81.3175 85.3326 81.251 85.3772 81.1402L86.9819 77.4854C87.1156 77.1974 87.4053 76.998 87.7174 76.998C88.0517 76.998 88.3414 77.1753 88.4528 77.4854L90.0577 81.1402C90.1023 81.251 90.2137 81.3396 90.3474 81.3396L94.3364 81.7163C94.6715 81.7384 94.9393 81.9599 95.0274 82.27C95.1397 82.5802 95.0499 82.9124 94.8046 83.1339L91.7966 85.792C91.7068 85.8806 91.6619 86.0135 91.6844 86.1242L92.5534 90.0228C92.6207 90.3329 92.5101 90.6652 92.2423 90.8425C91.9746 91.0418 91.6401 91.0418 91.3504 90.8867L87.8957 88.8711C87.7842 88.8045 87.6505 88.8045 87.5391 88.8711L84.0844 90.8646C83.9507 90.9311 83.8169 90.9753 83.6832 90.9753Z" fill="black"/>
<path d="M110.398 90.9753C110.242 90.9753 110.064 90.9311 109.93 90.8203C109.663 90.621 109.551 90.3108 109.618 90.0007L110.487 86.1021C110.509 85.9692 110.465 85.8585 110.376 85.7699L107.345 83.1118C107.099 82.8903 107.01 82.5579 107.122 82.27C107.233 81.9599 107.478 81.7384 107.813 81.7163L111.802 81.3396C111.936 81.3175 112.047 81.251 112.092 81.1402L113.697 77.4854C113.83 77.1974 114.12 76.998 114.432 76.998C114.767 76.998 115.056 77.1753 115.168 77.4854L116.773 81.1402C116.817 81.251 116.929 81.3396 117.062 81.3396L121.051 81.7163C121.386 81.7384 121.654 81.9599 121.742 82.27C121.855 82.5802 121.765 82.9124 121.519 83.1339L118.511 85.792C118.422 85.8806 118.377 86.0135 118.399 86.1242L119.268 90.0228C119.336 90.3329 119.225 90.6652 118.957 90.8425C118.689 91.0418 118.355 91.0418 118.065 90.8867L114.611 88.8711C114.499 88.8045 114.365 88.8045 114.254 88.8711L110.799 90.8646C110.666 90.9311 110.532 90.9753 110.398 90.9753Z" fill="black"/>
<defs>
<clipPath id="clip0_3117_4627">
<rect width="36" height="35.9962" fill="white" transform="translate(11.7344 29.002)"/>
</clipPath>
</defs>
</svg>
