<svg width="122" height="120" viewBox="0 0 122 120" fill="none" xmlns="http://www.w3.org/2000/svg">
<g clip-path="url(#clip0_2260_2658)">
<path d="M38.7077 54.5772C36.8339 56.2194 34.3986 57.1358 31.7741 57.1358C25.7803 57.1358 21.4648 52.9351 21.4648 46.9076C21.4648 40.8799 25.7741 36.8575 31.7741 36.8575C34.3986 36.8575 36.8339 37.5894 38.7077 39.4161L40.0198 40.5111L45.6412 35.0308L44.3291 33.7515C40.7706 30.83 36.4554 29.0033 31.7741 29.0033C21.0928 28.8188 13.2188 36.3101 13.2188 46.9076C13.2188 57.1358 21.2755 64.9962 31.7741 64.9962C36.6447 64.9962 41.143 63.354 44.7076 60.2481L46.0198 58.9688L40.0263 53.1258L38.7077 54.5772Z" fill="white"/>
<path d="M31.3705 53.1057C34.7851 53.1057 37.5533 50.407 37.5533 47.0782C37.5533 43.7494 34.7851 41.0508 31.3705 41.0508C27.9557 41.0508 25.1875 43.7494 25.1875 47.0782C25.1875 50.407 27.9557 53.1057 31.3705 53.1057Z" fill="#FF3D2E"/>
</g>
<path d="M105.56 57.3362C104.045 58.4242 102.338 58.9682 100.44 58.9682C98.5197 58.9682 96.813 58.4349 95.3197 57.3682C93.805 56.2802 92.653 54.8509 91.8637 53.0802C91.0744 51.2882 90.6797 49.2616 90.6797 47.0002C90.6797 43.6082 91.5757 40.7816 93.3677 38.5202C95.2024 36.1949 97.581 35.0322 100.504 35.0322C102.424 35.0322 104.13 35.5549 105.624 36.6002C107.138 37.7096 108.29 39.1496 109.08 40.9202C109.869 42.6909 110.264 44.7069 110.264 46.9682C110.264 49.2082 109.869 51.2242 109.08 53.0162C108.248 54.8722 107.074 56.3122 105.56 57.3362ZM103.64 39.5762C102.658 38.7869 101.592 38.3922 100.44 38.3922C99.2664 38.3922 98.2104 38.7762 97.2717 39.5442C95.3944 41.1229 94.4557 43.5976 94.4557 46.9682C94.413 49.3362 94.9677 51.3736 96.1197 53.0802C97.2717 54.7656 98.733 55.5976 100.504 55.5762C101.698 55.5762 102.754 55.1816 103.672 54.3922C104.568 53.6456 105.261 52.6216 105.752 51.3202C106.242 49.9762 106.488 48.5362 106.488 47.0002C106.488 43.6936 105.538 41.2189 103.64 39.5762Z" fill="white"/>
<path d="M83.8125 56.2483C83.8125 55.5016 84.0685 54.8723 84.5805 54.3603C85.1352 53.8483 85.7432 53.5923 86.4045 53.5923C87.0872 53.5923 87.7058 53.8483 88.2605 54.3603C88.7512 54.851 88.9965 55.4803 88.9965 56.2483C88.9965 56.9736 88.7512 57.5816 88.2605 58.0723C87.7485 58.5843 87.1298 58.8403 86.4045 58.8403C85.7218 58.8403 85.1138 58.5736 84.5805 58.0403C84.0685 57.571 83.8125 56.9736 83.8125 56.2483Z" fill="white"/>
<path d="M72.1184 58.9361C70.0917 58.9361 68.2677 58.3814 66.6464 57.2721C65.025 56.1627 64.0544 54.5307 63.7344 52.3761L67.2544 51.6081C67.4037 53.0801 68.0544 54.1467 69.2064 54.8081C70.1877 55.3627 71.1797 55.6401 72.1824 55.6401C73.2917 55.6401 74.3264 55.2774 75.2864 54.5521C76.3317 53.7627 76.8544 52.6321 76.8544 51.1601C76.8544 49.7521 76.3957 48.6427 75.4784 47.8321C74.561 47.0427 73.4624 46.6481 72.1824 46.6481C70.4117 46.6481 68.961 47.2881 67.8304 48.5681L64.5024 47.2881L67.2224 35.3521H79.6064V38.6481H69.8144L68.3744 44.9201C69.121 44.2801 70.0384 43.8534 71.1264 43.6401C71.7664 43.5334 72.4064 43.4801 73.0464 43.4801C75.3504 43.4801 77.2064 44.1841 78.6144 45.5921C79.9797 46.9787 80.6624 48.8027 80.6624 51.0641C80.6624 53.5174 79.809 55.4587 78.1024 56.8881C76.481 58.2534 74.4864 58.9361 72.1184 58.9361Z" fill="white"/>
<path d="M3.53476 90.9753C3.37875 90.9753 3.20045 90.9311 3.06673 90.8203C2.79928 90.621 2.68785 90.3108 2.75471 90.0007L3.62392 86.1021C3.6462 85.9692 3.60162 85.8585 3.51247 85.7699L0.481245 83.1118C0.236085 82.8903 0.146935 82.5579 0.258372 82.27C0.369809 81.9599 0.61497 81.7384 0.94928 81.7163L4.93902 81.3396C5.07275 81.3175 5.18419 81.251 5.22876 81.1402L6.83345 77.4854C6.96718 77.1974 7.2569 76.998 7.56892 76.998C7.90323 76.998 8.19297 77.1753 8.30441 77.4854L9.90926 81.1402C9.95383 81.251 10.0653 81.3396 10.199 81.3396L14.1879 81.7163C14.5231 81.7384 14.7908 81.9599 14.879 82.27C14.9913 82.5802 14.9015 82.9124 14.6561 83.1339L11.6482 85.792C11.5584 85.8806 11.5135 86.0135 11.5359 86.1242L12.405 90.0228C12.4723 90.3329 12.3617 90.6652 12.0939 90.8425C11.8261 91.0418 11.4917 91.0418 11.2019 90.8867L7.74723 88.8711C7.6358 88.8045 7.50206 88.8045 7.39063 88.8711L3.93594 90.8646C3.80222 90.9311 3.66849 90.9753 3.53476 90.9753Z" fill="white"/>
<path d="M30.2535 90.9753C30.0975 90.9753 29.9192 90.9311 29.7855 90.8203C29.518 90.621 29.4066 90.3108 29.4735 90.0007L30.3427 86.1021C30.365 85.9692 30.3204 85.8585 30.2312 85.7699L27.2 83.1118C26.9548 82.8903 26.8657 82.5579 26.9771 82.27C27.0886 81.9599 27.3337 81.7384 27.668 81.7163L31.6578 81.3396C31.7915 81.3175 31.9029 81.251 31.9475 81.1402L33.5522 77.4854C33.6859 77.1974 33.9757 76.998 34.2877 76.998C34.622 76.998 34.9117 77.1753 35.0232 77.4854L36.628 81.1402C36.6726 81.251 36.784 81.3396 36.9177 81.3396L40.9067 81.7163C41.2418 81.7384 41.5096 81.9599 41.5978 82.27C41.71 82.5802 41.6202 82.9124 41.3749 83.1339L38.3669 85.792C38.2771 85.8806 38.2322 86.0135 38.2547 86.1242L39.1237 90.0228C39.1911 90.3329 39.0804 90.6652 38.8126 90.8425C38.5449 91.0418 38.2104 91.0418 37.9207 90.8867L34.466 88.8711C34.3545 88.8045 34.2208 88.8045 34.1094 88.8711L30.6547 90.8646C30.521 90.9311 30.3872 90.9753 30.2535 90.9753Z" fill="white"/>
<path d="M56.9644 90.9753C56.8084 90.9753 56.6301 90.9311 56.4964 90.8203C56.229 90.621 56.1175 90.3108 56.1844 90.0007L57.0536 86.1021C57.0759 85.9692 57.0313 85.8585 56.9422 85.7699L53.9109 83.1118C53.6658 82.8903 53.5766 82.5579 53.6881 82.27C53.7995 81.9599 54.0447 81.7384 54.379 81.7163L58.3687 81.3396C58.5024 81.3175 58.6139 81.251 58.6585 81.1402L60.2631 77.4854C60.3969 77.1974 60.6866 76.998 60.9986 76.998C61.3329 76.998 61.6227 77.1753 61.7341 77.4854L63.3389 81.1402C63.3835 81.251 63.495 81.3396 63.6287 81.3396L67.6176 81.7163C67.9527 81.7384 68.2205 81.9599 68.3087 82.27C68.4209 82.5802 68.3311 82.9124 68.0858 83.1339L65.0778 85.792C64.988 85.8806 64.9432 86.0135 64.9656 86.1242L65.8346 90.0228C65.902 90.3329 65.7914 90.6652 65.5236 90.8425C65.2558 91.0418 64.9213 91.0418 64.6316 90.8867L61.1769 88.8711C61.0655 88.8045 60.9318 88.8045 60.8203 88.8711L57.3656 90.8646C57.2319 90.9311 57.0982 90.9753 56.9644 90.9753Z" fill="white"/>
<path d="M83.6832 90.9753C83.5272 90.9753 83.3489 90.9311 83.2152 90.8203C82.9477 90.621 82.8363 90.3108 82.9031 90.0007L83.7724 86.1021C83.7946 85.9692 83.7501 85.8585 83.6609 85.7699L80.6297 83.1118C80.3845 82.8903 80.2954 82.5579 80.4068 82.27C80.5182 81.9599 80.7634 81.7384 81.0977 81.7163L85.0875 81.3396C85.2212 81.3175 85.3326 81.251 85.3772 81.1402L86.9819 77.4854C87.1156 77.1974 87.4053 76.998 87.7174 76.998C88.0517 76.998 88.3414 77.1753 88.4528 77.4854L90.0577 81.1402C90.1023 81.251 90.2137 81.3396 90.3474 81.3396L94.3364 81.7163C94.6715 81.7384 94.9393 81.9599 95.0274 82.27C95.1397 82.5802 95.0499 82.9124 94.8046 83.1339L91.7966 85.792C91.7068 85.8806 91.6619 86.0135 91.6844 86.1242L92.5534 90.0228C92.6207 90.3329 92.5101 90.6652 92.2423 90.8425C91.9746 91.0418 91.6401 91.0418 91.3504 90.8867L87.8957 88.8711C87.7842 88.8045 87.6505 88.8045 87.5391 88.8711L84.0844 90.8646C83.9507 90.9311 83.8169 90.9753 83.6832 90.9753Z" fill="white"/>
<path d="M110.402 90.9753C110.246 90.9753 110.068 90.9311 109.934 90.8203C109.666 90.621 109.555 90.3108 109.622 90.0007L110.491 86.1021C110.513 85.9692 110.469 85.8585 110.38 85.7699L107.348 83.1118C107.103 82.8903 107.014 82.5579 107.126 82.27C107.237 81.9599 107.482 81.7384 107.816 81.7163L111.806 81.3396C111.94 81.3175 112.051 81.251 112.096 81.1402L113.701 77.4854C113.834 77.1974 114.124 76.998 114.436 76.998C114.77 76.998 115.06 77.1753 115.172 77.4854L116.776 81.1402C116.821 81.251 116.932 81.3396 117.066 81.3396L121.055 81.7163C121.39 81.7384 121.658 81.9599 121.746 82.27C121.858 82.5802 121.769 82.9124 121.523 83.1339L118.515 85.792C118.426 85.8806 118.381 86.0135 118.403 86.1242L119.272 90.0228C119.339 90.3329 119.229 90.6652 118.961 90.8425C118.693 91.0418 118.359 91.0418 118.069 90.8867L114.614 88.8711C114.503 88.8045 114.369 88.8045 114.258 88.8711L110.803 90.8646C110.669 90.9311 110.536 90.9753 110.402 90.9753Z" fill="white"/>
<defs>
<clipPath id="clip0_2260_2658">
<rect width="36" height="35.9962" fill="white" transform="translate(11.7344 29.002)"/>
</clipPath>
</defs>
</svg>
