<svg width="171" height="26" viewBox="0 0 171 26" fill="none" xmlns="http://www.w3.org/2000/svg">
<g clip-path="url(#clip0_2944_26260)">
<path d="M24.5617 5.71451V0.697754H9.93105V5.2493C9.93105 5.47739 9.74942 5.66296 9.52615 5.66296H0.210938V10.6797H9.52615C9.74942 10.6797 9.93105 10.8653 9.93105 11.0934V15.1797C9.93105 15.4078 9.74942 15.5934 9.52615 15.5934H0.210938V20.6101H9.52615C9.74942 20.6101 9.93105 20.7957 9.93105 21.0238V25.5753H24.5617V20.5586H10.3864C10.1631 20.5586 9.98151 20.373 9.98151 20.1449V16.0586C9.98151 15.8305 10.1631 15.6449 10.3864 15.6449H24.5617V10.6282H10.3612C10.1379 10.6282 9.95628 10.4426 9.95628 10.2145V6.12816C9.95628 5.90007 10.1379 5.71451 10.3612 5.71451H24.5617Z" fill="white"/>
<path d="M54.1216 14.1619H38.2536C38.5437 16.5046 40.5215 17.716 44.3422 17.716C48.1629 17.716 49.6917 16.801 49.9818 15.5897H54.0421C53.8832 18.6593 50.3249 20.5974 44.1858 20.5974C38.0467 20.5974 34.25 17.9054 34.25 13.1129C34.25 8.32035 37.8083 5.57422 44.1858 5.57422C50.5633 5.57422 54.1216 8.37448 54.1216 13.0317V14.1631V14.1619ZM38.2536 11.9273H50.0613C49.6917 9.61159 47.7946 8.45437 44.2375 8.45437C40.6805 8.45437 38.6232 9.69277 38.2548 11.9273H38.2536Z" fill="white"/>
<path d="M74.9783 12.6268V20.1925H70.8927V13.516C70.8927 10.4451 69.1268 8.99147 66.1499 8.99147C62.5386 8.99147 60.615 11.0649 60.615 13.4605V20.1925H56.5547V6.02884H60.4813V9.01853C61.8789 6.86389 64.3827 5.62549 67.5463 5.62549C71.9194 5.62549 74.9783 8.29043 74.9783 12.6255V12.6268Z" fill="white"/>
<path d="M83.0268 16.9633H93.6753V20.1939H77.2812V17.0973L87.8768 9.26223H77.4402V6.03027H93.4899V9.20811L83.0255 16.9633H83.0268Z" fill="white"/>
<path d="M110.814 6.03027H115.243L106.018 22.6437C104.831 24.8795 103.883 25.5792 101.432 25.5792H97.0839V22.4555H100.773C101.96 22.4555 102.301 22.2403 102.855 21.1901L103.436 20.1398L94.8438 6.03027H99.3759L105.464 16.2352L110.814 6.03027Z" fill="white"/>
<path d="M148.755 12.6268V20.1925H144.695V13.516C144.695 10.4451 142.982 8.99147 140.216 8.99147C136.657 8.99147 134.943 11.092 134.943 13.4605V20.1925H130.859V13.516C130.859 10.4451 129.198 8.99147 126.378 8.99147C122.951 8.99147 121.107 11.092 121.107 13.4605V20.1925H117.047V6.02884H120.974V9.01853C122.319 6.86389 124.742 5.62549 127.775 5.62549C130.807 5.62549 133.124 6.99791 134.232 9.34069C135.575 6.99791 138.185 5.62549 141.584 5.62549C145.722 5.62549 148.754 8.29043 148.754 12.6255L148.755 12.6268Z" fill="white"/>
<path d="M170.887 14.1619H155.019C155.309 16.5046 157.286 17.716 161.108 17.716C164.93 17.716 166.457 16.801 166.747 15.5897H170.808C170.649 18.6593 167.091 20.5974 160.951 20.5974C154.812 20.5974 151.016 17.9054 151.016 13.1129C151.016 8.32035 154.574 5.57422 160.951 5.57422C167.329 5.57422 170.887 8.37448 170.887 13.0317V14.1631V14.1619ZM155.019 11.9273H166.827C166.457 9.61159 164.56 8.45437 161.003 8.45437C157.446 8.45437 155.389 9.69277 155.02 11.9273H155.019Z" fill="white"/>
</g>
<defs>
<clipPath id="clip0_2944_26260">
<rect width="170.789" height="25" fill="white" transform="translate(0.101562 0.643555)"/>
</clipPath>
</defs>
</svg>
