<svg width="22" height="16" viewBox="0 0 22 16" fill="none" xmlns="http://www.w3.org/2000/svg">
<g clip-path="url(#clip0_2795_2262)">
<rect width="21" height="15" transform="translate(0.25 0.5)" fill="#1A47B8"/>
<path d="M19.25 0.5H2.25C1.14543 0.5 0.25 1.39543 0.25 2.5V13.5C0.25 14.6046 1.14543 15.5 2.25 15.5H19.25C20.3546 15.5 21.25 14.6046 21.25 13.5V2.5C21.25 1.39543 20.3546 0.5 19.25 0.5Z" fill="#1A47B8"/>
<path opacity="0.5" fill-rule="evenodd" clip-rule="evenodd" d="M4.25 12L5.25 11.5L5.75 10.5L6.25 11.5L7.25 12L6.25 12.5L5.75 13.5L5.25 12.5L4.25 12ZM14.25 3.5V4.5H15.25V3.5H14.25ZM17.25 4.5V5.5H18.25V4.5H17.25ZM13.25 6.5V7.5H14.25V6.5H13.25ZM16.25 7.5V8.5H17.25V7.5H16.25ZM15.25 10.5V11.5H16.25V10.5H15.25Z" fill="white"/>
<path d="M9.25 1.5H2.25C1.69772 1.5 1.25 1.94772 1.25 2.5V7.5C1.25 8.05228 1.69772 8.5 2.25 8.5H9.25C9.80229 8.5 10.25 8.05228 10.25 7.5V2.5C10.25 1.94772 9.80229 1.5 9.25 1.5Z" fill="white"/>
<path fill-rule="evenodd" clip-rule="evenodd" d="M5.25 5.5H2.25V4.5H5.25V2.5H6.25V4.5H9.25V5.5H6.25V7.5H5.25V5.5ZM7.75 6.5V7.5H9.25V6.5H7.75ZM7.75 2.5V3.5H9.25V2.5H7.75ZM2.25 6.5V7.5H3.75V6.5H2.25ZM2.25 2.5V3.5H3.75V2.5H2.25Z" fill="#F93939"/>
</g>
<defs>
<clipPath id="clip0_2795_2262">
<rect width="21" height="15" fill="white" transform="translate(0.25 0.5)"/>
</clipPath>
</defs>
</svg>
