<svg width="123" height="26" viewBox="0 0 123 26" fill="none" xmlns="http://www.w3.org/2000/svg">
<g clip-path="url(#clip0_2944_26255)">
<path d="M64.3559 11.7775C63.6518 10.4499 62.6852 9.40451 61.4561 8.63489C60.2335 7.86527 58.8316 7.48687 57.2889 7.48687C56.0983 7.48687 55.0229 7.73058 54.0499 8.21801C53.4802 8.5002 52.9745 8.86577 52.5264 9.29548V0.585938H47.9688V24.6558H52.488V23.1358C52.9297 23.5655 53.429 23.9375 54.0115 24.2518C54.9845 24.752 56.0727 25.0214 57.2825 25.0214C58.8252 25.0214 60.2271 24.6238 61.4497 23.8541C62.6788 23.1038 63.6454 22.0584 64.3495 20.7308C65.0664 19.4096 65.4185 17.9152 65.4185 16.267C65.4185 14.6187 65.0664 13.0987 64.3495 11.7775H64.3559ZM60.2143 18.6143C59.8622 19.307 59.3629 19.8393 58.7228 20.2177C58.0827 20.5961 57.353 20.7949 56.5208 20.7949C55.6886 20.7949 54.9461 20.5961 54.2996 20.2177C53.6466 19.8393 53.1473 19.3005 52.7761 18.6143C52.424 17.9409 52.2448 17.1392 52.2448 16.2349C52.2448 15.3306 52.424 14.5674 52.7761 13.8811C53.1473 13.2077 53.6402 12.6626 54.2804 12.2906C54.9205 11.8929 55.6502 11.707 56.4824 11.707C57.3145 11.707 58.0571 11.8994 58.7036 12.2906C59.3565 12.6626 59.8558 13.2077 60.2079 13.8811C60.5792 14.5738 60.752 15.3498 60.752 16.2349C60.752 17.12 60.5792 17.9409 60.2079 18.6143H60.2143Z" fill="white"/>
<path d="M80.7636 7.83315V9.46218C80.3155 8.95551 79.765 8.53863 79.1249 8.21796C78.1711 7.72412 77.0829 7.48682 75.8859 7.48682C74.3624 7.48682 72.9733 7.86521 71.7507 8.63483C70.5088 9.40445 69.555 10.4499 68.8637 11.7775C68.166 13.0986 67.8203 14.5994 67.8203 16.2669C67.8203 17.9344 68.166 19.4095 68.8637 20.7307C69.555 22.0583 70.5088 23.1037 71.7507 23.8541C72.9733 24.6237 74.3624 25.0213 75.8859 25.0213C77.0829 25.0213 78.1711 24.7648 79.1249 24.2645C79.765 23.931 80.3155 23.5206 80.7636 23.0203V24.6622H85.2701V7.83315H80.7636ZM79.8098 19.5185C79.0353 20.3651 77.9919 20.7948 76.7244 20.7948C75.8859 20.7948 75.1561 20.596 74.5096 20.2176C73.8823 19.8392 73.383 19.3005 73.0181 18.6142C72.6532 17.9408 72.4868 17.1391 72.4868 16.2348C72.4868 15.3305 72.6596 14.5673 73.0181 13.8811C73.383 13.2077 73.8823 12.6625 74.5096 12.2905C75.1561 11.8929 75.8859 11.7069 76.7244 11.7069C77.563 11.7069 78.3247 11.8993 78.9649 12.2905C79.605 12.6625 80.1043 13.2077 80.4627 13.8811C80.8148 14.5737 81.0069 15.3498 81.0069 16.2348C81.0069 17.5881 80.6036 18.6784 79.8098 19.525V19.5185Z" fill="white"/>
<path d="M100.726 15.6065C100.086 15.2024 99.4262 14.901 98.7093 14.6765C98.0051 14.4585 97.3202 14.2725 96.6737 14.0993C96.0271 13.9069 95.4958 13.7209 95.0862 13.4772C94.6893 13.2463 94.4844 12.9256 94.4844 12.5023C94.4844 12.1304 94.6637 11.8482 95.0158 11.6301C95.3678 11.4249 95.8863 11.3223 96.5648 11.3223C97.3074 11.3223 97.9923 11.4634 98.6324 11.7456C99.279 12.0213 99.8487 12.4703 100.348 13.0988L103.094 10.3474C102.352 9.37256 101.423 8.64142 100.303 8.15399C99.1765 7.66015 97.9283 7.42285 96.5328 7.42285C95.2142 7.42285 94.062 7.64091 93.089 8.08986C92.116 8.53239 91.367 9.14808 90.8421 9.93694C90.3236 10.7194 90.0676 11.6429 90.0676 12.7268C90.0676 13.7466 90.2724 14.5739 90.6693 15.2088C91.0854 15.8502 91.6103 16.3505 92.2632 16.7032C92.9033 17.0752 93.5819 17.3574 94.286 17.5754C95.0029 17.7935 95.6751 17.9987 96.328 18.1719C96.9809 18.345 97.5058 18.5631 97.9027 18.8197C98.3188 19.0698 98.5172 19.4353 98.5172 19.8971C98.5172 20.3204 98.3252 20.6283 97.9411 20.8399C97.5634 21.0451 97.0001 21.1606 96.264 21.1606C95.3358 21.1606 94.4908 20.9874 93.7227 20.6667C92.9546 20.3396 92.276 19.8458 91.7063 19.198L88.9922 21.943C89.5491 22.5972 90.2084 23.1488 90.9702 23.6105C91.7383 24.0595 92.5705 24.4122 93.4859 24.6624C94.4076 24.9317 95.3358 25.06 96.296 25.06C98.3316 25.06 99.9447 24.579 101.129 23.6105C102.3 22.6549 102.896 21.3402 102.896 19.6919C102.896 18.6657 102.697 17.8256 102.294 17.1778C101.878 16.53 101.366 16.0041 100.726 15.6129V15.6065Z" fill="white"/>
<path d="M121.549 11.5528C120.845 10.2765 119.872 9.28244 118.63 8.55771C117.389 7.82657 115.961 7.45459 114.335 7.45459C112.709 7.45459 111.199 7.84581 109.854 8.62826C108.51 9.4043 107.441 10.4497 106.679 11.7581C105.905 13.06 105.508 14.5608 105.508 16.2283C105.508 17.8958 105.911 19.4414 106.711 20.7562C107.511 22.0838 108.587 23.11 109.957 23.8732C111.32 24.63 112.882 25.0148 114.649 25.0148C116.012 25.0148 117.286 24.7582 118.445 24.2836C119.623 23.7834 120.608 23.0779 121.428 22.1287L118.752 19.4478C118.246 20.0186 117.638 20.4548 116.94 20.7498C116.243 21.0448 115.475 21.1923 114.617 21.1923C113.669 21.1923 112.831 20.9871 112.107 20.5702C111.384 20.1726 110.84 19.5889 110.462 18.8386C110.309 18.5435 110.187 18.2229 110.11 17.8829L122.369 17.8509C122.452 17.4597 122.522 17.1005 122.561 16.7798C122.593 16.472 122.612 16.1577 122.612 15.8627C122.612 14.2593 122.253 12.8227 121.556 11.5656L121.549 11.5528ZM110.11 14.4517C110.181 14.1439 110.29 13.836 110.43 13.5602C110.782 12.8291 111.301 12.2647 111.973 11.8543C112.652 11.4566 113.426 11.2514 114.335 11.2514C115.244 11.2514 115.929 11.431 116.505 11.7965C117.1 12.1493 117.549 12.6752 117.869 13.3422C118.022 13.6629 118.137 14.0348 118.233 14.4325L110.123 14.4581L110.11 14.4517Z" fill="white"/>
<path d="M12.4569 20.5449L12.1305 20.5898C11.9064 20.6091 11.5992 20.6347 11.3367 20.6347C8.89786 20.6347 8.71863 19.4097 8.71863 17.5306V11.861H12.4569V7.83337H8.71863V0.521973H4.12895V7.83337H0.390625V11.8546H4.13535V18.2489C4.13535 22.5459 6.4718 25.0151 10.5302 25.0151C11.2471 25.0151 11.7464 24.9574 12.2457 24.8163L12.4634 24.7458H12.4698V20.5449H12.4634H12.4569Z" fill="white"/>
<path d="M40.6875 16.2415L43.5617 12.2202V20.2563L40.6875 16.2415Z" fill="#FF4805"/>
<path d="M28.779 16.2415L25.8984 20.2563V12.2202L28.779 16.2415Z" fill="#FF4805"/>
<path d="M25.875 7.83301L37.9157 24.6492H43.5552L31.5209 7.83301H25.875Z" fill="white"/>
<path d="M43.5552 7.83301L31.5209 24.6492H25.875L37.9157 7.83301H43.5552Z" fill="white"/>
<path d="M21.4959 7.83301H16.9062V24.6492H21.4959V7.83301Z" fill="white"/>
<path d="M21.4959 0.489746H16.9062V5.03692H21.4959V0.489746Z" fill="white"/>
</g>
<defs>
<clipPath id="clip0_2944_26255">
<rect width="122.219" height="24.5573" fill="white" transform="translate(0.390625 0.489746)"/>
</clipPath>
</defs>
</svg>
