<svg width="162" height="36" viewBox="0 0 162 36" fill="none" xmlns="http://www.w3.org/2000/svg">
<path d="M13.4036 35.4398C8.24973 35.4398 4.04072 32.9917 1.97916 28.2243L6.53177 25.6903C7.94909 28.9544 10.2683 30.5865 13.4895 30.5865C15.3793 30.5865 16.9684 30.0282 18.2569 28.9115C19.5883 27.7948 20.2325 26.2916 20.2325 24.4018C20.2325 20.4505 17.355 18.1313 13.6184 18.1313C11.0844 18.1313 8.97987 19.0761 7.2619 21.0089L2.75225 19.162L5.28624 1.42405H24.055V6.1914H9.28051L7.94909 15.812C9.75295 14.3088 11.9863 13.5357 14.6062 13.5357C17.9133 13.5357 20.6191 14.5665 22.6377 16.5851C24.6563 18.6037 25.6871 21.1807 25.6871 24.3159C25.6871 27.7089 24.4845 30.4147 22.1223 32.4333C19.7601 34.4519 16.8396 35.4398 13.4036 35.4398ZM29.7158 31.5314C29.7158 29.4269 31.3908 27.7519 33.4524 27.7519C35.5569 27.7519 37.189 29.4269 37.189 31.5314C37.189 33.593 35.5139 35.268 33.4524 35.268C31.3908 35.268 29.7158 33.55 29.7158 31.5314ZM40.3996 18.2172C40.3996 13.321 41.7311 9.24079 44.351 5.93371C47.0138 2.62663 50.4068 0.951611 54.5729 0.951611C58.7389 0.951611 62.1319 2.58368 64.7518 5.89076C67.3717 9.15489 68.6602 13.2351 68.6602 18.1313C68.6602 23.0704 67.3287 27.1935 64.7088 30.5006C62.089 33.8077 58.653 35.4398 54.487 35.4398C50.3209 35.4398 46.9279 33.8077 44.308 30.5436C41.6881 27.2365 40.3996 23.1563 40.3996 18.2172ZM63.2056 18.2172C63.2056 14.7383 62.3896 11.8177 60.8005 9.41259C59.2114 7.00744 57.1069 5.80486 54.487 5.80486C51.8671 5.80486 49.8055 7.00744 48.2164 9.36964C46.6702 11.7318 45.8971 14.6524 45.8971 18.1313C45.8971 21.6101 46.6702 24.5736 48.2593 26.9788C49.8484 29.3839 51.953 30.5865 54.5729 30.5865C57.1928 30.5865 59.2543 29.3839 60.8434 27.0217C62.4325 24.6595 63.2056 21.696 63.2056 18.2172Z" fill="black"/>
<path d="M91.9201 4.10498H90.1406V14.8922H91.9201V4.10498Z" fill="black"/>
<path d="M98.1482 11.464C98.1482 13.0855 96.7165 13.2367 96.3296 13.2367C95.2848 13.2367 95.053 12.2564 95.053 11.6519V7.57959H93.2734V11.69C93.2734 12.7084 93.6212 13.5376 94.1632 14.142C94.666 14.6322 95.4398 14.8963 96.2918 14.8963C96.9106 14.8963 97.7235 14.7452 98.1104 14.2931V14.8963H99.8899V7.57959H98.1104V11.464H98.1482Z" fill="black"/>
<path d="M103.408 4.97705H101.628V7.58017H100.312V9.31479H101.628V14.8969H103.408V9.31479H104.723V7.58017H103.408V4.97705Z" fill="black"/>
<path d="M110.31 12.7069C109.923 13.0459 109.42 13.2351 108.878 13.2351C107.641 13.2351 106.75 12.3679 106.75 11.1234C106.75 9.87897 107.639 9.0485 108.878 9.0485C109.42 9.0485 109.923 9.19962 110.31 9.57675L110.581 9.80283L111.741 8.67137L111.471 8.40725C110.736 7.80409 109.845 7.42696 108.878 7.42696C106.673 7.38886 105.047 8.93549 105.047 11.1234C105.047 13.2351 106.71 14.858 108.878 14.858C109.884 14.858 110.813 14.5189 111.549 13.8777L111.82 13.6136L110.582 12.4072L110.31 12.7069Z" fill="black"/>
<path d="M118.12 8.2167C117.617 7.72655 116.998 7.46243 116.185 7.46243C115.566 7.46243 114.909 7.61354 114.444 8.06559V4.10498H112.664V14.8922H114.444V10.8185C114.444 9.19699 115.681 9.04588 116.069 9.04588C117.114 9.04588 117.114 10.0262 117.114 10.6306V14.8922H118.894V10.5925C118.933 9.64904 118.701 8.78176 118.12 8.2167Z" fill="black"/>
<path d="M108.792 12.4034C109.497 12.4034 110.069 11.8462 110.069 11.159C110.069 10.4717 109.497 9.91455 108.792 9.91455C108.087 9.91455 107.516 10.4717 107.516 11.159C107.516 11.8462 108.087 12.4034 108.792 12.4034Z" fill="#FF3D2E"/>
<path d="M87.7003 12.176C87.0424 12.8173 86.0745 13.1944 85.147 13.1944C83.1343 13.1944 81.7026 11.6859 81.7026 9.61096C81.7026 7.53608 83.1344 6.02755 85.1079 6.02755C86.0367 6.02755 86.9265 6.40468 87.6612 7.04594L87.9322 7.31006L89.0929 6.17866L88.8219 5.91448C87.8162 4.93419 86.5005 4.40723 85.1079 4.40723C82.1664 4.44404 80 6.67003 80 9.64906C80 12.6294 82.1664 14.8541 85.1079 14.8541C86.5396 14.8541 87.8944 14.3258 88.8219 13.3455L89.0929 13.0814L87.9322 11.8751L87.7003 12.176Z" fill="black"/>
<path d="M82.2417 32.4169C82.1365 32.4169 82.0162 32.387 81.926 32.3123C81.7456 32.1779 81.6705 31.9687 81.7156 31.7595L82.3018 29.1302C82.3168 29.0406 82.2868 28.9659 82.2266 28.9062L80.1823 27.1135C80.017 26.9641 79.9568 26.7399 80.032 26.5458C80.1071 26.3366 80.2725 26.1872 80.498 26.1723L83.1887 25.9183C83.2789 25.9034 83.3541 25.8585 83.3841 25.7838L84.4664 23.3189C84.5566 23.1247 84.752 22.9902 84.9624 22.9902C85.1879 22.9902 85.3833 23.1098 85.4584 23.3189L86.5408 25.7838C86.5709 25.8585 86.646 25.9183 86.7362 25.9183L89.4264 26.1723C89.6525 26.1872 89.833 26.3366 89.8925 26.5458C89.9682 26.755 89.9077 26.979 89.7422 27.1284L87.7135 28.9211C87.653 28.9809 87.6227 29.0705 87.6379 29.1452L88.224 31.7745C88.2694 31.9836 88.1948 32.2077 88.0142 32.3273C87.8336 32.4617 87.608 32.4617 87.4126 32.3571L85.0827 30.9977C85.0075 30.9528 84.9173 30.9528 84.8422 30.9977L82.5122 32.3422C82.4221 32.387 82.3319 32.4169 82.2417 32.4169Z" fill="black"/>
<path d="M100.257 32.4169C100.152 32.4169 100.032 32.387 99.9416 32.3123C99.7613 32.1779 99.6861 31.9687 99.7312 31.7595L100.317 29.1302C100.332 29.0406 100.302 28.9659 100.242 28.9062L98.1979 27.1135C98.0326 26.9641 97.9725 26.7399 98.0476 26.5458C98.1228 26.3366 98.2881 26.1872 98.5136 26.1723L101.204 25.9183C101.295 25.9034 101.37 25.8585 101.4 25.7838L102.482 23.3189C102.572 23.1247 102.768 22.9902 102.978 22.9902C103.204 22.9902 103.399 23.1098 103.474 23.3189L104.556 25.7838C104.586 25.8585 104.662 25.9183 104.752 25.9183L107.442 26.1723C107.668 26.1872 107.849 26.3366 107.908 26.5458C107.984 26.755 107.923 26.979 107.758 27.1284L105.729 28.9211C105.669 28.9809 105.638 29.0705 105.653 29.1452L106.24 31.7745C106.285 31.9836 106.21 32.2077 106.03 32.3273C105.849 32.4617 105.624 32.4617 105.428 32.3571L103.098 30.9977C103.023 30.9528 102.933 30.9528 102.858 30.9977L100.528 32.3422C100.438 32.387 100.347 32.4169 100.257 32.4169Z" fill="black"/>
<path d="M118.281 32.4169C118.176 32.4169 118.055 32.387 117.965 32.3123C117.785 32.1779 117.71 31.9687 117.755 31.7595L118.341 29.1302C118.356 29.0406 118.326 28.9659 118.266 28.9062L116.221 27.1135C116.056 26.9641 115.996 26.7399 116.071 26.5458C116.146 26.3366 116.312 26.1872 116.537 26.1723L119.228 25.9183C119.318 25.9034 119.393 25.8585 119.423 25.7838L120.505 23.3189C120.596 23.1247 120.791 22.9902 121.001 22.9902C121.227 22.9902 121.422 23.1098 121.498 23.3189L122.58 25.7838C122.61 25.8585 122.685 25.9183 122.775 25.9183L125.466 26.1723C125.692 26.1872 125.872 26.3366 125.932 26.5458C126.007 26.755 125.947 26.979 125.781 27.1284L123.753 28.9211C123.692 28.9809 123.662 29.0705 123.677 29.1452L124.263 31.7745C124.308 31.9836 124.234 32.2077 124.053 32.3273C123.873 32.4617 123.647 32.4617 123.452 32.3571L121.122 30.9977C121.047 30.9528 120.956 30.9528 120.881 30.9977L118.551 32.3422C118.461 32.387 118.371 32.4169 118.281 32.4169Z" fill="black"/>
<path d="M136.296 32.4169C136.191 32.4169 136.071 32.387 135.981 32.3123C135.8 32.1779 135.725 31.9687 135.77 31.7595L136.356 29.1302C136.372 29.0406 136.341 28.9659 136.281 28.9062L134.237 27.1135C134.072 26.9641 134.012 26.7399 134.087 26.5458C134.162 26.3366 134.327 26.1872 134.553 26.1723L137.243 25.9183C137.334 25.9034 137.409 25.8585 137.439 25.7838L138.521 23.3189C138.611 23.1247 138.807 22.9902 139.017 22.9902C139.243 22.9902 139.438 23.1098 139.513 23.3189L140.595 25.7838C140.626 25.8585 140.701 25.9183 140.791 25.9183L143.481 26.1723C143.707 26.1872 143.888 26.3366 143.947 26.5458C144.023 26.755 143.962 26.979 143.797 27.1284L141.768 28.9211C141.708 28.9809 141.677 29.0705 141.693 29.1452L142.279 31.7745C142.324 31.9836 142.249 32.2077 142.069 32.3273C141.888 32.4617 141.663 32.4617 141.467 32.3571L139.137 30.9977C139.062 30.9528 138.972 30.9528 138.897 30.9977L136.567 32.3422C136.477 32.387 136.387 32.4169 136.296 32.4169Z" fill="black"/>
<path d="M154.312 32.4169C154.207 32.4169 154.087 32.387 153.996 32.3123C153.816 32.1779 153.741 31.9687 153.786 31.7595L154.372 29.1302C154.387 29.0406 154.357 28.9659 154.297 28.9062L152.253 27.1135C152.087 26.9641 152.027 26.7399 152.102 26.5458C152.177 26.3366 152.343 26.1872 152.568 26.1723L155.259 25.9183C155.349 25.9034 155.424 25.8585 155.454 25.7838L156.537 23.3189C156.627 23.1247 156.822 22.9902 157.033 22.9902C157.258 22.9902 157.454 23.1098 157.529 23.3189L158.611 25.7838C158.641 25.8585 158.716 25.9183 158.807 25.9183L161.497 26.1723C161.723 26.1872 161.903 26.3366 161.963 26.5458C162.039 26.755 161.978 26.979 161.813 27.1284L159.784 28.9211C159.723 28.9809 159.693 29.0705 159.708 29.1452L160.294 31.7745C160.34 31.9836 160.265 32.2077 160.084 32.3273C159.904 32.4617 159.678 32.4617 159.483 32.3571L157.153 30.9977C157.078 30.9528 156.988 30.9528 156.912 30.9977L154.583 32.3422C154.492 32.387 154.402 32.4169 154.312 32.4169Z" fill="black"/>
</svg>
