<svg width="162" height="35" viewBox="0 0 162 35" fill="none" xmlns="http://www.w3.org/2000/svg">
<path d="M13.4036 34.8841C8.24973 34.8841 4.04072 32.436 1.97916 27.6686L6.53177 25.1346C7.94909 28.3988 10.2683 30.0308 13.4895 30.0308C15.3793 30.0308 16.9684 29.4725 18.2569 28.3558C19.5883 27.2392 20.2325 25.7359 20.2325 23.8462C20.2325 19.8949 17.355 17.5756 13.6184 17.5756C11.0844 17.5756 8.97987 18.5205 7.2619 20.4532L2.75225 18.6064L5.28624 0.868387H24.055V5.63574H9.28051L7.94909 15.2563C9.75295 13.7531 11.9863 12.98 14.6062 12.98C17.9133 12.98 20.6191 14.0108 22.6377 16.0294C24.6563 18.048 25.6871 20.625 25.6871 23.7603C25.6871 27.1533 24.4845 29.8591 22.1223 31.8777C19.7601 33.8963 16.8396 34.8841 13.4036 34.8841ZM29.7158 30.9757C29.7158 28.8712 31.3908 27.1962 33.4524 27.1962C35.5569 27.1962 37.189 28.8712 37.189 30.9757C37.189 33.0373 35.5139 34.7123 33.4524 34.7123C31.3908 34.7123 29.7158 32.9943 29.7158 30.9757ZM40.3996 17.6615C40.3996 12.7653 41.7311 8.68513 44.351 5.37805C47.0138 2.07096 50.4068 0.395947 54.5729 0.395947C58.7389 0.395947 62.1319 2.02801 64.7518 5.3351C67.3717 8.59923 68.6602 12.6794 68.6602 17.5756C68.6602 22.5148 67.3287 26.6379 64.7088 29.945C62.089 33.252 58.653 34.8841 54.487 34.8841C50.3209 34.8841 46.9279 33.252 44.308 29.9879C41.6881 26.6808 40.3996 22.6006 40.3996 17.6615ZM63.2056 17.6615C63.2056 14.1826 62.3896 11.2621 60.8005 8.85693C59.2114 6.45177 57.1069 5.2492 54.487 5.2492C51.8671 5.2492 49.8055 6.45177 48.2164 8.81398C46.6702 11.1762 45.8971 14.0967 45.8971 17.5756C45.8971 21.0545 46.6702 24.018 48.2593 26.4231C49.8484 28.8283 51.953 30.0308 54.5729 30.0308C57.1928 30.0308 59.2543 28.8283 60.8434 26.4661C62.4325 24.1039 63.2056 21.1404 63.2056 17.6615Z" fill="white"/>
<path d="M91.9201 3.54932H90.1406V14.3365H91.9201V3.54932Z" fill="white"/>
<path d="M98.1482 10.9083C98.1482 12.5299 96.7165 12.681 96.3296 12.681C95.2848 12.681 95.053 11.7007 95.053 11.0963V7.02393H93.2734V11.1344C93.2734 12.1527 93.6212 12.9819 94.1632 13.5864C94.666 14.0765 95.4398 14.3406 96.2918 14.3406C96.9106 14.3406 97.7235 14.1895 98.1104 13.7375V14.3406H99.8899V7.02393H98.1104V10.9083H98.1482Z" fill="white"/>
<path d="M103.408 4.42139H101.628V7.02451H100.312V8.75913H101.628V14.3413H103.408V8.75913H104.723V7.02451H103.408V4.42139Z" fill="white"/>
<path d="M110.31 12.1512C109.923 12.4903 109.42 12.6795 108.878 12.6795C107.641 12.6795 106.75 11.8122 106.75 10.5678C106.75 9.32331 107.639 8.49284 108.878 8.49284C109.42 8.49284 109.923 8.64395 110.31 9.02109L110.581 9.24717L111.741 8.11571L111.471 7.85158C110.736 7.24843 109.845 6.87129 108.878 6.87129C106.673 6.83319 105.047 8.37983 105.047 10.5678C105.047 12.6795 106.71 14.3023 108.878 14.3023C109.884 14.3023 110.813 13.9633 111.549 13.322L111.82 13.0579L110.582 11.8516L110.31 12.1512Z" fill="white"/>
<path d="M118.12 7.66104C117.617 7.17089 116.998 6.90677 116.185 6.90677C115.566 6.90677 114.909 7.05788 114.444 7.50992V3.54932H112.664V14.3365H114.444V10.2629C114.444 8.64133 115.681 8.49021 116.069 8.49021C117.114 8.49021 117.114 9.4705 117.114 10.0749V14.3365H118.894V10.0368C118.933 9.09337 118.701 8.22609 118.12 7.66104Z" fill="white"/>
<path d="M108.792 11.8477C109.497 11.8477 110.069 11.2906 110.069 10.6033C110.069 9.91604 109.497 9.35889 108.792 9.35889C108.087 9.35889 107.516 9.91604 107.516 10.6033C107.516 11.2906 108.087 11.8477 108.792 11.8477Z" fill="#FF3D2E"/>
<path d="M87.7003 11.6204C87.0424 12.2616 86.0745 12.6388 85.147 12.6388C83.1343 12.6388 81.7026 11.1302 81.7026 9.0553C81.7026 6.98042 83.1344 5.47188 85.1079 5.47188C86.0367 5.47188 86.9265 5.84902 87.6612 6.49027L87.9322 6.7544L89.0929 5.623L88.8219 5.35881C87.8162 4.37852 86.5005 3.85156 85.1079 3.85156C82.1664 3.88838 80 6.11437 80 9.0934C80 12.0737 82.1664 14.2984 85.1079 14.2984C86.5396 14.2984 87.8944 13.7702 88.8219 12.7899L89.0929 12.5258L87.9322 11.3194L87.7003 11.6204Z" fill="white"/>
<path d="M82.2417 31.8612C82.1365 31.8612 82.0162 31.8314 81.926 31.7567C81.7456 31.6222 81.6705 31.413 81.7156 31.2039L82.3018 28.5746C82.3168 28.485 82.2868 28.4103 82.2266 28.3505L80.1823 26.5579C80.017 26.4085 79.9568 26.1843 80.032 25.9901C80.1071 25.781 80.2725 25.6316 80.498 25.6167L83.1887 25.3626C83.2789 25.3477 83.3541 25.3029 83.3841 25.2282L84.4664 22.7633C84.5566 22.569 84.752 22.4346 84.9624 22.4346C85.1879 22.4346 85.3833 22.5541 85.4584 22.7633L86.5408 25.2282C86.5709 25.3029 86.646 25.3626 86.7362 25.3626L89.4264 25.6167C89.6525 25.6316 89.833 25.781 89.8925 25.9901C89.9682 26.1993 89.9077 26.4234 89.7422 26.5728L87.7135 28.3654C87.653 28.4252 87.6227 28.5148 87.6379 28.5895L88.224 31.2188C88.2694 31.428 88.1948 31.652 88.0142 31.7716C87.8336 31.9061 87.608 31.9061 87.4126 31.8014L85.0827 30.442C85.0075 30.3972 84.9173 30.3972 84.8422 30.442L82.5122 31.7865C82.4221 31.8314 82.3319 31.8612 82.2417 31.8612Z" fill="white"/>
<path d="M100.257 31.8612C100.152 31.8612 100.032 31.8314 99.9416 31.7567C99.7613 31.6222 99.6861 31.413 99.7312 31.2039L100.317 28.5746C100.332 28.485 100.302 28.4103 100.242 28.3505L98.1979 26.5579C98.0326 26.4085 97.9725 26.1843 98.0476 25.9901C98.1228 25.781 98.2881 25.6316 98.5136 25.6167L101.204 25.3626C101.295 25.3477 101.37 25.3029 101.4 25.2282L102.482 22.7633C102.572 22.569 102.768 22.4346 102.978 22.4346C103.204 22.4346 103.399 22.5541 103.474 22.7633L104.556 25.2282C104.586 25.3029 104.662 25.3626 104.752 25.3626L107.442 25.6167C107.668 25.6316 107.849 25.781 107.908 25.9901C107.984 26.1993 107.923 26.4234 107.758 26.5728L105.729 28.3654C105.669 28.4252 105.638 28.5148 105.653 28.5895L106.24 31.2188C106.285 31.428 106.21 31.652 106.03 31.7716C105.849 31.9061 105.624 31.9061 105.428 31.8014L103.098 30.442C103.023 30.3972 102.933 30.3972 102.858 30.442L100.528 31.7865C100.438 31.8314 100.347 31.8612 100.257 31.8612Z" fill="white"/>
<path d="M118.281 31.8612C118.176 31.8612 118.055 31.8314 117.965 31.7567C117.785 31.6222 117.71 31.413 117.755 31.2039L118.341 28.5746C118.356 28.485 118.326 28.4103 118.266 28.3505L116.221 26.5579C116.056 26.4085 115.996 26.1843 116.071 25.9901C116.146 25.781 116.312 25.6316 116.537 25.6167L119.228 25.3626C119.318 25.3477 119.393 25.3029 119.423 25.2282L120.505 22.7633C120.596 22.569 120.791 22.4346 121.001 22.4346C121.227 22.4346 121.422 22.5541 121.498 22.7633L122.58 25.2282C122.61 25.3029 122.685 25.3626 122.775 25.3626L125.466 25.6167C125.692 25.6316 125.872 25.781 125.932 25.9901C126.007 26.1993 125.947 26.4234 125.781 26.5728L123.753 28.3654C123.692 28.4252 123.662 28.5148 123.677 28.5895L124.263 31.2188C124.308 31.428 124.234 31.652 124.053 31.7716C123.873 31.9061 123.647 31.9061 123.452 31.8014L121.122 30.442C121.047 30.3972 120.956 30.3972 120.881 30.442L118.551 31.7865C118.461 31.8314 118.371 31.8612 118.281 31.8612Z" fill="white"/>
<path d="M136.296 31.8612C136.191 31.8612 136.071 31.8314 135.981 31.7567C135.8 31.6222 135.725 31.413 135.77 31.2039L136.356 28.5746C136.372 28.485 136.341 28.4103 136.281 28.3505L134.237 26.5579C134.072 26.4085 134.012 26.1843 134.087 25.9901C134.162 25.781 134.327 25.6316 134.553 25.6167L137.243 25.3626C137.334 25.3477 137.409 25.3029 137.439 25.2282L138.521 22.7633C138.611 22.569 138.807 22.4346 139.017 22.4346C139.243 22.4346 139.438 22.5541 139.513 22.7633L140.595 25.2282C140.626 25.3029 140.701 25.3626 140.791 25.3626L143.481 25.6167C143.707 25.6316 143.888 25.781 143.947 25.9901C144.023 26.1993 143.962 26.4234 143.797 26.5728L141.768 28.3654C141.708 28.4252 141.677 28.5148 141.693 28.5895L142.279 31.2188C142.324 31.428 142.249 31.652 142.069 31.7716C141.888 31.9061 141.663 31.9061 141.467 31.8014L139.137 30.442C139.062 30.3972 138.972 30.3972 138.897 30.442L136.567 31.7865C136.477 31.8314 136.387 31.8612 136.296 31.8612Z" fill="white"/>
<path d="M154.312 31.8612C154.207 31.8612 154.087 31.8314 153.996 31.7567C153.816 31.6222 153.741 31.413 153.786 31.2039L154.372 28.5746C154.387 28.485 154.357 28.4103 154.297 28.3505L152.253 26.5579C152.087 26.4085 152.027 26.1843 152.102 25.9901C152.177 25.781 152.343 25.6316 152.568 25.6167L155.259 25.3626C155.349 25.3477 155.424 25.3029 155.454 25.2282L156.537 22.7633C156.627 22.569 156.822 22.4346 157.033 22.4346C157.258 22.4346 157.454 22.5541 157.529 22.7633L158.611 25.2282C158.641 25.3029 158.716 25.3626 158.807 25.3626L161.497 25.6167C161.723 25.6316 161.903 25.781 161.963 25.9901C162.039 26.1993 161.978 26.4234 161.813 26.5728L159.784 28.3654C159.723 28.4252 159.693 28.5148 159.708 28.5895L160.294 31.2188C160.34 31.428 160.265 31.652 160.084 31.7716C159.904 31.9061 159.678 31.9061 159.483 31.8014L157.153 30.442C157.078 30.3972 156.988 30.3972 156.912 30.442L154.583 31.7865C154.492 31.8314 154.402 31.8612 154.312 31.8612Z" fill="white"/>
</svg>
