<svg width="77" height="77" viewBox="0 0 77 77" fill="none" xmlns="http://www.w3.org/2000/svg">
<g filter="url(#filter0_d_3644_5958)">
<path d="M37.0117 24.5799C37.8266 24.2025 38.7672 24.2025 39.582 24.5799L51.5367 30.1039C52.0016 30.3172 52.2969 30.7821 52.2969 31.2962C52.2969 31.8103 52.0016 32.2752 51.5367 32.4885L39.582 38.0125C38.7672 38.3899 37.8266 38.3899 37.0117 38.0125L25.057 32.4885C24.5922 32.2697 24.2969 31.8048 24.2969 31.2962C24.2969 30.7875 24.5922 30.3172 25.057 30.1039L37.0117 24.5799ZM26.9246 36.2404C26.9264 36.2404 26.9282 36.2408 26.9298 36.2416L35.9125 40.3916C37.4273 41.0917 39.1719 41.0917 40.6867 40.3916L48.8318 36.6285C49.3647 36.3823 49.9789 36.3827 50.5115 36.6295L51.5367 37.1046C52.0016 37.3179 52.2969 37.7828 52.2969 38.2969C52.2969 38.811 52.0016 39.2759 51.5367 39.4892L39.582 45.0132C38.7672 45.3905 37.8266 45.3905 37.0117 45.0132L25.057 39.4892C24.5922 39.2704 24.2969 38.8055 24.2969 38.2969C24.2969 37.7882 24.5922 37.3179 25.057 37.1046L26.9194 36.2416C26.921 36.2408 26.9228 36.2404 26.9246 36.2404ZM25.057 44.1053L26.0822 43.6302C26.6149 43.3834 27.229 43.383 27.7619 43.6292L35.907 47.3923C37.4219 48.0924 39.1664 48.0924 40.6812 47.3923L48.8263 43.6292C49.3592 43.383 49.9734 43.3834 50.506 43.6302L51.5312 44.1053C51.9961 44.3186 52.2914 44.7834 52.2914 45.2976C52.2914 45.8117 51.9961 46.2766 51.5312 46.4899L39.5766 52.0138C38.7617 52.3912 37.8211 52.3912 37.0062 52.0138L25.057 46.4899C24.5922 46.2711 24.2969 45.8062 24.2969 45.2976C24.2969 44.7889 24.5922 44.3186 25.057 44.1053Z" fill="#12FBFF"/>
</g>
<defs>
<filter id="filter0_d_3644_5958" x="0.296875" y="0.296875" width="76" height="76" filterUnits="userSpaceOnUse" color-interpolation-filters="sRGB">
<feFlood flood-opacity="0" result="BackgroundImageFix"/>
<feColorMatrix in="SourceAlpha" type="matrix" values="0 0 0 0 0 0 0 0 0 0 0 0 0 0 0 0 0 0 127 0" result="hardAlpha"/>
<feOffset/>
<feGaussianBlur stdDeviation="12"/>
<feComposite in2="hardAlpha" operator="out"/>
<feColorMatrix type="matrix" values="0 0 0 0 0.0705882 0 0 0 0 0.984314 0 0 0 0 1 0 0 0 1 0"/>
<feBlend mode="normal" in2="BackgroundImageFix" result="effect1_dropShadow_3644_5958"/>
<feBlend mode="normal" in="SourceGraphic" in2="effect1_dropShadow_3644_5958" result="shape"/>
</filter>
</defs>
</svg>
