<svg width="74" height="74" viewBox="0 0 74 74" fill="none" xmlns="http://www.w3.org/2000/svg">
<g filter="url(#filter0_d_3644_5981)">
<path fill-rule="evenodd" clip-rule="evenodd" d="M27.7992 24.2C26.8444 24.2 25.9288 24.5792 25.2536 25.2544C24.5785 25.9295 24.1992 26.8452 24.1992 27.8V46.2C24.1992 47.1547 24.5785 48.0704 25.2536 48.7455C25.9288 49.4207 26.8444 49.8 27.7992 49.8H46.1992C47.154 49.8 48.0697 49.4207 48.7448 48.7455C49.4199 48.0704 49.7992 47.1547 49.7992 46.2V27.8C49.7992 26.8452 49.4199 25.9295 48.7448 25.2544C48.0697 24.5792 47.154 24.2 46.1992 24.2H27.7992ZM26.5992 33.8V46.2C26.5992 46.8624 27.1368 47.4 27.7992 47.4H46.1992C46.5175 47.4 46.8227 47.2735 47.0477 47.0485C47.2728 46.8234 47.3992 46.5182 47.3992 46.2V33.8H26.5992ZM28.9992 27.8C28.681 27.8 28.3757 27.9264 28.1507 28.1514C27.9256 28.3765 27.7992 28.6817 27.7992 29V29.016C27.7992 29.6784 28.3368 30.216 28.9992 30.216H29.0152C29.3335 30.216 29.6387 30.0895 29.8637 29.8645C30.0888 29.6394 30.2152 29.3342 30.2152 29.016V29C30.2152 28.6817 30.0888 28.3765 29.8637 28.1514C29.6387 27.9264 29.3335 27.8 29.0152 27.8H28.9992ZM32.5992 29C32.5992 28.6817 32.7256 28.3765 32.9507 28.1514C33.1757 27.9264 33.481 27.8 33.7992 27.8H33.8152C34.1335 27.8 34.4387 27.9264 34.6637 28.1514C34.8888 28.3765 35.0152 28.6817 35.0152 29V29.016C35.0152 29.3342 34.8888 29.6394 34.6637 29.8645C34.4387 30.0895 34.1335 30.216 33.8152 30.216H33.7992C33.481 30.216 33.1757 30.0895 32.9507 29.8645C32.7256 29.6394 32.5992 29.3342 32.5992 29.016V29ZM38.5992 27.8C38.281 27.8 37.9757 27.9264 37.7507 28.1514C37.5256 28.3765 37.3992 28.6817 37.3992 29V29.016C37.3992 29.6784 37.9368 30.216 38.5992 30.216H38.6152C38.9335 30.216 39.2387 30.0895 39.4637 29.8645C39.6888 29.6394 39.8152 29.3342 39.8152 29.016V29C39.8152 28.6817 39.6888 28.3765 39.4637 28.1514C39.2387 27.9264 38.9335 27.8 38.6152 27.8H38.5992Z" fill="#36FF12"/>
</g>
<defs>
<filter id="filter0_d_3644_5981" x="0.199219" y="0.199951" width="73.5996" height="73.6001" filterUnits="userSpaceOnUse" color-interpolation-filters="sRGB">
<feFlood flood-opacity="0" result="BackgroundImageFix"/>
<feColorMatrix in="SourceAlpha" type="matrix" values="0 0 0 0 0 0 0 0 0 0 0 0 0 0 0 0 0 0 127 0" result="hardAlpha"/>
<feOffset/>
<feGaussianBlur stdDeviation="12"/>
<feComposite in2="hardAlpha" operator="out"/>
<feColorMatrix type="matrix" values="0 0 0 0 0.211765 0 0 0 0 1 0 0 0 0 0.0705882 0 0 0 1 0"/>
<feBlend mode="normal" in2="BackgroundImageFix" result="effect1_dropShadow_3644_5981"/>
<feBlend mode="normal" in="SourceGraphic" in2="effect1_dropShadow_3644_5981" result="shape"/>
</filter>
</defs>
</svg>
