<svg width="76" height="72" viewBox="0 0 76 72" fill="none" xmlns="http://www.w3.org/2000/svg">
<g filter="url(#filter0_d_3644_5971)">
<path d="M27.3327 44C26.5993 44 25.9718 43.7391 25.45 43.2173C24.9282 42.6956 24.6669 42.0676 24.666 41.3333V26.6667C24.666 25.9333 24.9273 25.3058 25.45 24.784C25.9727 24.2622 26.6002 24.0009 27.3327 24H48.666C49.3993 24 50.0273 24.2613 50.55 24.784C51.0727 25.3067 51.3336 25.9342 51.3327 26.6667V41.3333C51.3327 42.0667 51.0718 42.6947 50.55 43.2173C50.0282 43.74 49.4002 44.0009 48.666 44H44.666L45.5993 44.9333C45.7327 45.0667 45.8327 45.2169 45.8993 45.384C45.966 45.5511 45.9993 45.7231 45.9993 45.9V46.6667C45.9993 47.0444 45.8713 47.3609 45.6153 47.616C45.3594 47.8711 45.0429 47.9991 44.666 48H31.3327C30.9549 48 30.6385 47.872 30.3833 47.616C30.1282 47.36 30.0002 47.0436 29.9993 46.6667V45.9C29.9993 45.7222 30.0327 45.5502 30.0993 45.384C30.166 45.2178 30.266 45.0676 30.3993 44.9333L31.3327 44H27.3327Z" fill="#36FF12"/>
</g>
<defs>
<filter id="filter0_d_3644_5971" x="0.666016" y="0" width="74.666" height="72" filterUnits="userSpaceOnUse" color-interpolation-filters="sRGB">
<feFlood flood-opacity="0" result="BackgroundImageFix"/>
<feColorMatrix in="SourceAlpha" type="matrix" values="0 0 0 0 0 0 0 0 0 0 0 0 0 0 0 0 0 0 127 0" result="hardAlpha"/>
<feOffset/>
<feGaussianBlur stdDeviation="12"/>
<feComposite in2="hardAlpha" operator="out"/>
<feColorMatrix type="matrix" values="0 0 0 0 0.211765 0 0 0 0 1 0 0 0 0 0.0705882 0 0 0 1 0"/>
<feBlend mode="normal" in2="BackgroundImageFix" result="effect1_dropShadow_3644_5971"/>
<feBlend mode="normal" in="SourceGraphic" in2="effect1_dropShadow_3644_5971" result="shape"/>
</filter>
</defs>
</svg>
