<svg width="71" height="71" viewBox="0 0 71 71" fill="none" xmlns="http://www.w3.org/2000/svg">
<g filter="url(#filter0_d_3644_5955)">
<path d="M24.1836 26.1846C24.1836 25.08 25.079 24.1846 26.1836 24.1846H32.1246C33.2292 24.1846 34.1246 25.08 34.1246 26.1846V32.1256C34.1246 33.2302 33.2292 34.1256 32.1246 34.1256H26.1836C25.079 34.1256 24.1836 33.2302 24.1836 32.1256V26.1846Z" fill="#12FBFF"/>
<path d="M24.1836 38.9659C24.1836 37.8613 25.079 36.9659 26.1836 36.9659H32.1246C33.2292 36.9659 34.1246 37.8613 34.1246 38.9659V44.9069C34.1246 46.0115 33.2292 46.9069 32.1246 46.9069H26.1836C25.079 46.9069 24.1836 46.0115 24.1836 44.9069V38.9659Z" fill="#12FBFF"/>
<path d="M36.9649 26.1846C36.9649 25.08 37.8604 24.1846 38.9649 24.1846H44.906C46.0105 24.1846 46.906 25.08 46.906 26.1846V32.1256C46.906 33.2302 46.0105 34.1256 44.906 34.1256H38.9649C37.8604 34.1256 36.9649 33.2302 36.9649 32.1256V26.1846Z" fill="#12FBFF"/>
<path d="M36.9649 38.9659C36.9649 37.8613 37.8604 36.9659 38.9649 36.9659H44.906C46.0105 36.9659 46.906 37.8613 46.906 38.9659V44.9069C46.906 46.0115 46.0105 46.9069 44.906 46.9069H38.9649C37.8604 46.9069 36.9649 46.0115 36.9649 44.9069V38.9659Z" fill="#12FBFF"/>
</g>
<defs>
<filter id="filter0_d_3644_5955" x="0.183594" y="0.18457" width="70.7227" height="70.7224" filterUnits="userSpaceOnUse" color-interpolation-filters="sRGB">
<feFlood flood-opacity="0" result="BackgroundImageFix"/>
<feColorMatrix in="SourceAlpha" type="matrix" values="0 0 0 0 0 0 0 0 0 0 0 0 0 0 0 0 0 0 127 0" result="hardAlpha"/>
<feOffset/>
<feGaussianBlur stdDeviation="12"/>
<feComposite in2="hardAlpha" operator="out"/>
<feColorMatrix type="matrix" values="0 0 0 0 0.0705882 0 0 0 0 0.984314 0 0 0 0 1 0 0 0 1 0"/>
<feBlend mode="normal" in2="BackgroundImageFix" result="effect1_dropShadow_3644_5955"/>
<feBlend mode="normal" in="SourceGraphic" in2="effect1_dropShadow_3644_5955" result="shape"/>
</filter>
</defs>
</svg>
