<svg width="80" height="80" viewBox="0 0 80 80" fill="none" xmlns="http://www.w3.org/2000/svg">
<g filter="url(#filter0_d_3644_5952)">
<path d="M48.492 23.9978C48.0366 23.9979 47.5858 24.0887 47.1659 24.2649C46.746 24.4411 46.3654 24.6992 46.0463 25.0241L27.2166 43.7601C27.0773 43.8997 26.9765 44.0729 26.924 44.2629L24.044 54.5487C23.9896 54.7438 23.988 54.95 24.0394 55.1459C24.0908 55.3419 24.1934 55.5207 24.3367 55.664C24.48 55.8073 24.6588 55.9099 24.8547 55.9613C25.0507 56.0127 25.2569 56.0111 25.452 55.9567L35.7377 53.0767C35.9278 53.0241 36.101 52.9234 36.2406 52.7841L54.9766 33.9544L54.9812 33.9521C55.3018 33.6334 55.5563 33.2545 55.73 32.8371C55.9036 32.4198 55.993 31.9722 55.993 31.5201C55.993 31.068 55.9036 30.6204 55.73 30.203C55.5563 29.7857 55.3018 29.4067 54.9812 29.0881L54.9766 29.0858L50.94 25.0264C50.6209 24.7008 50.24 24.4421 49.8196 24.2655C49.3993 24.0889 48.948 23.9979 48.492 23.9978Z" fill="#7B12FF"/>
</g>
<defs>
<filter id="filter0_d_3644_5952" x="0.00195312" y="-0.00219727" width="79.9902" height="80.001" filterUnits="userSpaceOnUse" color-interpolation-filters="sRGB">
<feFlood flood-opacity="0" result="BackgroundImageFix"/>
<feColorMatrix in="SourceAlpha" type="matrix" values="0 0 0 0 0 0 0 0 0 0 0 0 0 0 0 0 0 0 127 0" result="hardAlpha"/>
<feOffset/>
<feGaussianBlur stdDeviation="12"/>
<feComposite in2="hardAlpha" operator="out"/>
<feColorMatrix type="matrix" values="0 0 0 0 0.482353 0 0 0 0 0.0705882 0 0 0 0 1 0 0 0 1 0"/>
<feBlend mode="normal" in2="BackgroundImageFix" result="effect1_dropShadow_3644_5952"/>
<feBlend mode="normal" in="SourceGraphic" in2="effect1_dropShadow_3644_5952" result="shape"/>
</filter>
</defs>
</svg>
