<svg width="66" height="74" viewBox="0 0 66 74" fill="none" xmlns="http://www.w3.org/2000/svg">
<g filter="url(#filter0_d_3644_5961)">
<path d="M27.2727 24C25.4676 24 24 25.4574 24 27.25V46.75C24 48.5426 25.4676 50 27.2727 50H38.7273C40.5324 50 42 48.5426 42 46.75V27.25C42 25.4574 40.5324 24 38.7273 24H27.2727ZM30.9545 45.125H35.0455C35.7256 45.125 36.2727 45.6684 36.2727 46.3438C36.2727 47.0191 35.7256 47.5625 35.0455 47.5625H30.9545C30.2744 47.5625 29.7273 47.0191 29.7273 46.3438C29.7273 45.6684 30.2744 45.125 30.9545 45.125Z" fill="#12FBFF"/>
</g>
<defs>
<filter id="filter0_d_3644_5961" x="0" y="0" width="66" height="74" filterUnits="userSpaceOnUse" color-interpolation-filters="sRGB">
<feFlood flood-opacity="0" result="BackgroundImageFix"/>
<feColorMatrix in="SourceAlpha" type="matrix" values="0 0 0 0 0 0 0 0 0 0 0 0 0 0 0 0 0 0 127 0" result="hardAlpha"/>
<feOffset/>
<feGaussianBlur stdDeviation="12"/>
<feComposite in2="hardAlpha" operator="out"/>
<feColorMatrix type="matrix" values="0 0 0 0 0.0705882 0 0 0 0 0.984314 0 0 0 0 1 0 0 0 1 0"/>
<feBlend mode="normal" in2="BackgroundImageFix" result="effect1_dropShadow_3644_5961"/>
<feBlend mode="normal" in="SourceGraphic" in2="effect1_dropShadow_3644_5961" result="shape"/>
</filter>
</defs>
</svg>
