<svg width="24" height="24" viewBox="0 0 24 24" fill="none" xmlns="http://www.w3.org/2000/svg">
<path d="M12 3C7.02918 3 3 7.02973 3 12C3 16.9703 7.02918 20.9999 12 20.9999C16.9708 20.9999 21 16.9702 21 11.9999C21 7.02967 16.9708 3 12 3ZM17.9056 7.35597C18.8731 8.5845 19.4654 10.1189 19.5121 11.789C17.4927 11.4352 15.7513 11.4245 14.2465 11.663C14.0559 11.2254 13.8596 10.8001 13.6582 10.3884C15.272 9.72467 16.7193 8.75658 17.9056 7.35597ZM16.87 6.2805C15.8103 7.56692 14.48 8.45227 12.9748 9.05476C12.0112 7.26941 11.0201 5.78156 10.2281 4.69539C10.7968 4.55643 11.3891 4.48223 11.9994 4.48223C13.8573 4.48161 15.5572 5.16053 16.87 6.2805ZM8.76844 5.21342C9.53399 6.23545 10.5527 7.71595 11.5489 9.53115C9.43729 10.1111 7.07533 10.2675 4.6847 10.2742C5.21231 8.03774 6.7389 6.18374 8.76844 5.21342ZM4.48272 11.9993L4.4889 11.7563H4.52937C7.20799 11.7563 9.86746 11.5808 12.2519 10.8782C12.4297 11.2399 12.6046 11.6112 12.7756 11.9931C9.6386 12.9129 7.68277 14.9772 6.34235 16.9414C5.18586 15.6202 4.48272 13.8905 4.48272 11.9993ZM7.43809 17.9686C8.70709 16.0573 10.4756 14.1662 13.3533 13.3719C14.0255 15.0943 14.574 16.9741 14.8642 18.9485C13.9811 19.3152 13.0142 19.5177 12.0006 19.5177C10.2855 19.5177 8.70375 18.9401 7.43809 17.9686ZM16.2469 18.1993C15.9392 16.3953 15.4352 14.6747 14.8282 13.0794C16.1434 12.9124 17.6553 12.9529 19.408 13.2752C19.0576 15.3124 17.8865 17.0726 16.2469 18.1993Z" fill="#7F838D"/>
</svg>
