<svg width="24" height="24" viewBox="0 0 24 24" fill="none" xmlns="http://www.w3.org/2000/svg">
<path d="M12 4.6214C14.4032 4.6214 14.6878 4.6304 15.6369 4.67375C16.5145 4.71378 16.991 4.86024 17.3081 4.98358C17.7284 5.14696 18.0281 5.34173 18.343 5.65668C18.6579 5.97163 18.8531 6.27139 19.0161 6.6916C19.1395 7.00871 19.2859 7.48524 19.326 8.36283C19.3692 9.31192 19.3783 9.59649 19.3783 11.9997C19.3783 14.4029 19.3693 14.6874 19.326 15.6365C19.2859 16.5141 19.1395 16.9906 19.0161 17.3077C18.8527 17.728 18.658 18.0277 18.343 18.3427C18.0281 18.6575 17.7283 18.8527 17.3081 19.0158C16.991 19.1391 16.5145 19.2856 15.6369 19.3256C14.6879 19.3689 14.4032 19.378 12 19.378C9.59677 19.378 9.31228 19.369 8.36319 19.3256C7.4856 19.2856 7.00907 19.1391 6.69196 19.0158C6.27167 18.8523 5.97199 18.6575 5.65704 18.3427C5.34217 18.0277 5.14696 17.728 4.98394 17.3077C4.86053 16.9906 4.71414 16.5141 4.67411 15.6365C4.63083 14.6875 4.62176 14.4029 4.62176 11.9997C4.62176 9.59656 4.63076 9.312 4.67411 8.36283C4.71414 7.48524 4.8606 7.00871 4.98394 6.6916C5.14732 6.27131 5.34209 5.97163 5.65704 5.65668C5.97199 5.34181 6.27175 5.1466 6.69196 4.98358C7.00907 4.86024 7.4856 4.71378 8.36319 4.67375C9.31221 4.63083 9.59685 4.6214 12 4.6214ZM12 3C9.55573 3 9.24914 3.01044 8.28924 3.05408C7.33115 3.09771 6.67713 3.25 6.10469 3.47249C5.51274 3.70262 5.01102 4.01037 4.51066 4.51066C4.01037 5.01102 3.70233 5.51274 3.47249 6.10469C3.24993 6.6772 3.09771 7.33151 3.05408 8.28924C3.01044 9.24921 3 9.5558 3 12C3 14.4442 3.01044 14.7509 3.05408 15.7108C3.09771 16.6688 3.25 17.3229 3.47249 17.8953C3.70262 18.4873 4.01037 18.989 4.51066 19.4893C5.01102 19.9897 5.5131 20.2974 6.10469 20.5275C6.6772 20.7501 7.33151 20.9023 8.28924 20.9459C9.24914 20.9896 9.55573 21 12 21C14.4443 21 14.7509 20.9896 15.7108 20.9459C16.6688 20.9023 17.3229 20.75 17.8953 20.5275C18.4873 20.2973 18.989 19.9896 19.4893 19.4893C19.9897 18.989 20.2974 18.4869 20.5275 17.8953C20.7501 17.3229 20.9023 16.6685 20.9459 15.7108C20.9896 14.7509 21 14.4443 21 12C21 9.55573 20.9896 9.24914 20.9459 8.28924C20.9023 7.33115 20.75 6.67713 20.5275 6.10469C20.2973 5.51274 19.9896 5.01102 19.4893 4.51066C18.989 4.01037 18.4869 3.70262 17.8953 3.47249C17.3229 3.24993 16.6685 3.09771 15.7108 3.05408C14.7509 3.01044 14.4443 3 12 3ZM12 7.37846C9.44751 7.37846 7.37846 9.44751 7.37846 12C7.37846 14.5525 9.44751 16.6216 12 16.6216C14.5525 16.6216 16.6216 14.5525 16.6216 12C16.6216 9.44751 14.5525 7.37846 12 7.37846ZM12 15.0002C10.3432 15.0002 8.99986 13.6573 8.99986 12.0001C8.99986 10.3429 10.3432 8.99993 12 8.99993C13.6568 8.99993 15.0001 10.3429 15.0001 12.0001C15.0001 13.6573 13.6568 15.0002 12 15.0002ZM16.8041 6.11593C16.2075 6.11593 15.7241 6.59929 15.7241 7.19592C15.7241 7.79255 16.2075 8.27599 16.8041 8.27599C17.4008 8.27599 17.8842 7.79255 17.8842 7.19592C17.8842 6.59929 17.4008 6.11593 16.8041 6.11593Z" fill="#7F838D"/>
</svg>
