<svg width="24" height="24" viewBox="0 0 24 24" fill="none" xmlns="http://www.w3.org/2000/svg">
<path fill-rule="evenodd" clip-rule="evenodd" d="M9.81628 3.57168C11.5191 2.9454 13.3809 2.83059 15.1536 3.24256C16.9264 3.65452 18.5257 4.57369 19.7386 5.87755L16.984 8.2235C16.2696 7.45548 15.3275 6.91405 14.2833 6.67138C13.2391 6.42872 12.1424 6.49634 11.1394 6.86525C10.1364 7.23415 9.27468 7.88681 8.66918 8.73622C8.06369 9.58563 7.74315 10.5915 7.75028 11.6196C7.75742 12.6478 8.09189 13.6494 8.70912 14.4911C9.32635 15.3327 10.197 15.9744 11.2051 16.3305C12.2131 16.6866 13.3107 16.7403 14.3514 16.4844C15.3922 16.2285 16.3267 15.6751 17.0304 14.8981L19.8173 17.2088C18.6226 18.528 17.0361 19.4674 15.2693 19.9019C13.5024 20.3363 11.6391 20.2452 9.9278 19.6406C8.21646 19.036 6.73836 17.9467 5.6905 16.5179C4.64264 15.089 4.07481 13.3885 4.0627 11.643C4.05058 9.89756 4.59476 8.19001 5.62269 6.74798C6.65062 5.30595 8.11348 4.19795 9.81628 3.57168Z" fill="#7F838D"/>
<ellipse cx="12.9189" cy="11.4683" rx="2.95013" ry="2.8228" fill="#7F838D"/>
</svg>
